<?xml version="1.0" encoding="utf-8" standalone="no"?>
<!DOCTYPE svg PUBLIC "-//W3C//DTD SVG 1.1//EN"
  "http://www.w3.org/Graphics/SVG/1.1/DTD/svg11.dtd">
<svg xmlns:xlink="http://www.w3.org/1999/xlink" width="460.8pt" height="345.6pt" viewBox="0 0 460.8 345.6" xmlns="http://www.w3.org/2000/svg" version="1.1">
 <metadata>
  <rdf:RDF xmlns:dc="http://purl.org/dc/elements/1.1/" xmlns:cc="http://creativecommons.org/ns#" xmlns:rdf="http://www.w3.org/1999/02/22-rdf-syntax-ns#">
   <cc:Work>
    <dc:type rdf:resource="http://purl.org/dc/dcmitype/StillImage"/>
    <dc:date>2022-08-25T21:02:30.502169</dc:date>
    <dc:format>image/svg+xml</dc:format>
    <dc:creator>
     <cc:Agent>
      <dc:title>Matplotlib v3.5.1, https://matplotlib.org/</dc:title>
     </cc:Agent>
    </dc:creator>
   </cc:Work>
  </rdf:RDF>
 </metadata>
 <defs>
  <style type="text/css">*{stroke-linejoin: round; stroke-linecap: butt}</style>
 </defs>
 <g id="figure_1">
  <g id="patch_1">
   <path d="M 0 345.6 
L 460.8 345.6 
L 460.8 0 
L 0 0 
z
" style="fill: #ffffff"/>
  </g>
  <g id="axes_1">
   <g id="patch_2">
    <path d="M 57.6 307.584 
L 414.72 307.584 
L 414.72 41.472 
L 57.6 41.472 
z
" style="fill: #ffffff"/>
   </g>
   <g id="matplotlib.axis_1">
    <g id="xtick_1">
     <g id="line2d_1">
      <path d="M 62.974716 307.584 
L 62.974716 41.472 
" clip-path="url(#p96609b599f)" style="fill: none; stroke-dasharray: 5.12,1.28,0.8,1.28; stroke-dashoffset: 0; stroke: #b0b0b0; stroke-width: 0.8"/>
     </g>
     <g id="line2d_2">
      <defs>
       <path id="ma4ac166933" d="M 0 0 
L 0 3.5 
" style="stroke: #000000; stroke-width: 0.8"/>
      </defs>
      <g>
       <use xlink:href="#ma4ac166933" x="62.974716" y="307.584" style="stroke: #000000; stroke-width: 0.8"/>
      </g>
     </g>
     <g id="text_1">
      <!-- 1350 -->
      <g transform="translate(50.974716 322.974625)scale(0.12 -0.12)">
       <defs>
        <path id="FangSong-31" d="M 1800 4350 
L 1800 550 
Q 1800 350 1925 250 
Q 2050 150 2275 150 
L 2525 150 
L 2525 0 
L 700 0 
L 700 150 
L 925 150 
Q 1175 150 1287 250 
Q 1400 350 1400 550 
L 1400 3575 
Q 1400 3675 1337 3737 
Q 1275 3800 1150 3800 
L 700 3800 
L 700 3950 
L 925 3950 
Q 1225 3950 1412 4050 
Q 1600 4150 1700 4350 
L 1800 4350 
z
" transform="scale(0.015625)"/>
        <path id="FangSong-33" d="M 2775 1150 
Q 2775 675 2425 312 
Q 2075 -50 1450 -50 
Q 1000 -50 675 200 
Q 350 450 350 775 
Q 350 925 450 1037 
Q 550 1150 650 1150 
Q 800 1150 862 1037 
Q 925 925 925 850 
Q 925 725 875 637 
Q 825 550 825 475 
Q 825 325 1012 225 
Q 1200 125 1425 125 
Q 1875 125 2100 387 
Q 2325 650 2325 1200 
Q 2325 1650 2087 1925 
Q 1850 2200 1200 2200 
L 1200 2375 
Q 1700 2375 1937 2612 
Q 2175 2850 2175 3275 
Q 2175 3625 1987 3887 
Q 1800 4150 1400 4150 
Q 1225 4150 1025 4062 
Q 825 3975 825 3775 
Q 825 3575 875 3525 
Q 925 3475 925 3400 
Q 925 3275 875 3200 
Q 825 3125 700 3125 
Q 600 3125 512 3200 
Q 425 3275 425 3475 
Q 425 3850 750 4087 
Q 1075 4325 1500 4325 
Q 2000 4325 2300 4012 
Q 2600 3700 2600 3350 
Q 2600 2975 2412 2712 
Q 2225 2450 1825 2325 
Q 2375 2125 2575 1800 
Q 2775 1475 2775 1150 
z
" transform="scale(0.015625)"/>
        <path id="FangSong-35" d="M 1700 2750 
Q 2175 2750 2475 2387 
Q 2775 2025 2775 1425 
Q 2775 750 2462 350 
Q 2150 -50 1500 -50 
Q 1050 -50 700 212 
Q 350 475 350 850 
Q 350 1000 437 1112 
Q 525 1225 675 1225 
Q 825 1225 875 1125 
Q 925 1025 925 950 
Q 925 800 850 712 
Q 775 625 775 525 
Q 775 325 1012 225 
Q 1250 125 1525 125 
Q 1925 125 2137 450 
Q 2350 775 2350 1375 
Q 2350 1875 2162 2187 
Q 1975 2500 1600 2500 
Q 1325 2500 1125 2400 
Q 925 2300 750 1975 
L 525 2000 
L 650 4275 
L 2700 4275 
L 2625 3900 
L 825 3900 
L 725 2250 
Q 975 2600 1212 2675 
Q 1450 2750 1700 2750 
z
" transform="scale(0.015625)"/>
        <path id="FangSong-30" d="M 1575 4125 
Q 1225 4125 987 3587 
Q 750 3050 750 2150 
Q 750 1200 987 675 
Q 1225 150 1575 150 
Q 1950 150 2162 675 
Q 2375 1200 2375 2150 
Q 2375 3050 2175 3587 
Q 1975 4125 1575 4125 
z
M 1575 -50 
Q 1025 -50 650 525 
Q 275 1100 275 2150 
Q 275 3125 637 3725 
Q 1000 4325 1575 4325 
Q 2125 4325 2487 3750 
Q 2850 3175 2850 2150 
Q 2850 1125 2487 537 
Q 2125 -50 1575 -50 
z
" transform="scale(0.015625)"/>
       </defs>
       <use xlink:href="#FangSong-31"/>
       <use xlink:href="#FangSong-33" x="50"/>
       <use xlink:href="#FangSong-35" x="100"/>
       <use xlink:href="#FangSong-30" x="150"/>
      </g>
     </g>
    </g>
    <g id="xtick_2">
     <g id="line2d_3">
      <path d="M 117.264773 307.584 
L 117.264773 41.472 
" clip-path="url(#p96609b599f)" style="fill: none; stroke-dasharray: 5.12,1.28,0.8,1.28; stroke-dashoffset: 0; stroke: #b0b0b0; stroke-width: 0.8"/>
     </g>
     <g id="line2d_4">
      <g>
       <use xlink:href="#ma4ac166933" x="117.264773" y="307.584" style="stroke: #000000; stroke-width: 0.8"/>
      </g>
     </g>
     <g id="text_2">
      <!-- 1400 -->
      <g transform="translate(105.264773 322.974625)scale(0.12 -0.12)">
       <defs>
        <path id="FangSong-34" d="M 2275 475 
Q 2275 300 2375 225 
Q 2475 150 2650 150 
L 2875 150 
L 2875 0 
L 1225 0 
L 1225 150 
L 1500 150 
Q 1700 150 1787 225 
Q 1875 300 1875 475 
L 1875 1300 
L 200 1300 
L 200 1425 
L 2025 4325 
L 2275 4325 
L 2275 1450 
L 2950 1450 
L 2950 1300 
L 2275 1300 
L 2275 475 
z
M 1850 3700 
L 425 1450 
L 1875 1450 
L 1875 3700 
L 1850 3700 
z
" transform="scale(0.015625)"/>
       </defs>
       <use xlink:href="#FangSong-31"/>
       <use xlink:href="#FangSong-34" x="50"/>
       <use xlink:href="#FangSong-30" x="100"/>
       <use xlink:href="#FangSong-30" x="150"/>
      </g>
     </g>
    </g>
    <g id="xtick_3">
     <g id="line2d_5">
      <path d="M 171.554831 307.584 
L 171.554831 41.472 
" clip-path="url(#p96609b599f)" style="fill: none; stroke-dasharray: 5.12,1.28,0.8,1.28; stroke-dashoffset: 0; stroke: #b0b0b0; stroke-width: 0.8"/>
     </g>
     <g id="line2d_6">
      <g>
       <use xlink:href="#ma4ac166933" x="171.554831" y="307.584" style="stroke: #000000; stroke-width: 0.8"/>
      </g>
     </g>
     <g id="text_3">
      <!-- 1450 -->
      <g transform="translate(159.554831 322.974625)scale(0.12 -0.12)">
       <use xlink:href="#FangSong-31"/>
       <use xlink:href="#FangSong-34" x="50"/>
       <use xlink:href="#FangSong-35" x="100"/>
       <use xlink:href="#FangSong-30" x="150"/>
      </g>
     </g>
    </g>
    <g id="xtick_4">
     <g id="line2d_7">
      <path d="M 225.844889 307.584 
L 225.844889 41.472 
" clip-path="url(#p96609b599f)" style="fill: none; stroke-dasharray: 5.12,1.28,0.8,1.28; stroke-dashoffset: 0; stroke: #b0b0b0; stroke-width: 0.8"/>
     </g>
     <g id="line2d_8">
      <g>
       <use xlink:href="#ma4ac166933" x="225.844889" y="307.584" style="stroke: #000000; stroke-width: 0.8"/>
      </g>
     </g>
     <g id="text_4">
      <!-- 1500 -->
      <g transform="translate(213.844889 322.974625)scale(0.12 -0.12)">
       <use xlink:href="#FangSong-31"/>
       <use xlink:href="#FangSong-35" x="50"/>
       <use xlink:href="#FangSong-30" x="100"/>
       <use xlink:href="#FangSong-30" x="150"/>
      </g>
     </g>
    </g>
    <g id="xtick_5">
     <g id="line2d_9">
      <path d="M 280.134947 307.584 
L 280.134947 41.472 
" clip-path="url(#p96609b599f)" style="fill: none; stroke-dasharray: 5.12,1.28,0.8,1.28; stroke-dashoffset: 0; stroke: #b0b0b0; stroke-width: 0.8"/>
     </g>
     <g id="line2d_10">
      <g>
       <use xlink:href="#ma4ac166933" x="280.134947" y="307.584" style="stroke: #000000; stroke-width: 0.8"/>
      </g>
     </g>
     <g id="text_5">
      <!-- 1550 -->
      <g transform="translate(268.134947 322.974625)scale(0.12 -0.12)">
       <use xlink:href="#FangSong-31"/>
       <use xlink:href="#FangSong-35" x="50"/>
       <use xlink:href="#FangSong-35" x="100"/>
       <use xlink:href="#FangSong-30" x="150"/>
      </g>
     </g>
    </g>
    <g id="xtick_6">
     <g id="line2d_11">
      <path d="M 334.425005 307.584 
L 334.425005 41.472 
" clip-path="url(#p96609b599f)" style="fill: none; stroke-dasharray: 5.12,1.28,0.8,1.28; stroke-dashoffset: 0; stroke: #b0b0b0; stroke-width: 0.8"/>
     </g>
     <g id="line2d_12">
      <g>
       <use xlink:href="#ma4ac166933" x="334.425005" y="307.584" style="stroke: #000000; stroke-width: 0.8"/>
      </g>
     </g>
     <g id="text_6">
      <!-- 1600 -->
      <g transform="translate(322.425005 322.974625)scale(0.12 -0.12)">
       <defs>
        <path id="FangSong-36" d="M 750 1700 
Q 750 950 1012 537 
Q 1275 125 1650 125 
Q 2025 125 2225 400 
Q 2425 675 2425 1425 
Q 2425 1925 2212 2200 
Q 2000 2475 1700 2475 
Q 1425 2475 1187 2312 
Q 950 2150 750 1700 
z
M 1725 2725 
Q 2325 2725 2587 2325 
Q 2850 1925 2850 1425 
Q 2850 675 2487 312 
Q 2125 -50 1650 -50 
Q 975 -50 625 462 
Q 275 975 275 1950 
Q 275 3100 700 3712 
Q 1125 4325 1850 4325 
Q 2200 4325 2412 4125 
Q 2625 3925 2625 3775 
Q 2625 3625 2562 3550 
Q 2500 3475 2350 3475 
Q 2225 3475 2162 3537 
Q 2100 3600 2100 3725 
Q 2100 3775 2112 3825 
Q 2125 3875 2125 3925 
Q 2125 4025 2050 4087 
Q 1975 4150 1775 4150 
Q 1350 4150 1050 3762 
Q 750 3375 750 2075 
Q 900 2400 1162 2562 
Q 1425 2725 1725 2725 
z
" transform="scale(0.015625)"/>
       </defs>
       <use xlink:href="#FangSong-31"/>
       <use xlink:href="#FangSong-36" x="50"/>
       <use xlink:href="#FangSong-30" x="100"/>
       <use xlink:href="#FangSong-30" x="150"/>
      </g>
     </g>
    </g>
    <g id="xtick_7">
     <g id="line2d_13">
      <path d="M 388.715062 307.584 
L 388.715062 41.472 
" clip-path="url(#p96609b599f)" style="fill: none; stroke-dasharray: 5.12,1.28,0.8,1.28; stroke-dashoffset: 0; stroke: #b0b0b0; stroke-width: 0.8"/>
     </g>
     <g id="line2d_14">
      <g>
       <use xlink:href="#ma4ac166933" x="388.715062" y="307.584" style="stroke: #000000; stroke-width: 0.8"/>
      </g>
     </g>
     <g id="text_7">
      <!-- 1650 -->
      <g transform="translate(376.715062 322.974625)scale(0.12 -0.12)">
       <use xlink:href="#FangSong-31"/>
       <use xlink:href="#FangSong-36" x="50"/>
       <use xlink:href="#FangSong-35" x="100"/>
       <use xlink:href="#FangSong-30" x="150"/>
      </g>
     </g>
    </g>
   </g>
   <g id="matplotlib.axis_2">
    <g id="ytick_1">
     <g id="line2d_15">
      <path d="M 57.6 307.584 
L 414.72 307.584 
" clip-path="url(#p96609b599f)" style="fill: none; stroke-dasharray: 5.12,1.28,0.8,1.28; stroke-dashoffset: 0; stroke: #b0b0b0; stroke-width: 0.8"/>
     </g>
     <g id="line2d_16">
      <defs>
       <path id="m2549db3553" d="M 0 0 
L -3.5 0 
" style="stroke: #000000; stroke-width: 0.8"/>
      </defs>
      <g>
       <use xlink:href="#m2549db3553" x="57.6" y="307.584" style="stroke: #000000; stroke-width: 0.8"/>
      </g>
     </g>
     <g id="text_8">
      <!-- 40 -->
      <g transform="translate(38.6 311.779313)scale(0.12 -0.12)">
       <use xlink:href="#FangSong-34"/>
       <use xlink:href="#FangSong-30" x="50"/>
      </g>
     </g>
    </g>
    <g id="ytick_2">
     <g id="line2d_17">
      <path d="M 57.6 263.232 
L 414.72 263.232 
" clip-path="url(#p96609b599f)" style="fill: none; stroke-dasharray: 5.12,1.28,0.8,1.28; stroke-dashoffset: 0; stroke: #b0b0b0; stroke-width: 0.8"/>
     </g>
     <g id="line2d_18">
      <g>
       <use xlink:href="#m2549db3553" x="57.6" y="263.232" style="stroke: #000000; stroke-width: 0.8"/>
      </g>
     </g>
     <g id="text_9">
      <!-- 45 -->
      <g transform="translate(38.6 267.427312)scale(0.12 -0.12)">
       <use xlink:href="#FangSong-34"/>
       <use xlink:href="#FangSong-35" x="50"/>
      </g>
     </g>
    </g>
    <g id="ytick_3">
     <g id="line2d_19">
      <path d="M 57.6 218.88 
L 414.72 218.88 
" clip-path="url(#p96609b599f)" style="fill: none; stroke-dasharray: 5.12,1.28,0.8,1.28; stroke-dashoffset: 0; stroke: #b0b0b0; stroke-width: 0.8"/>
     </g>
     <g id="line2d_20">
      <g>
       <use xlink:href="#m2549db3553" x="57.6" y="218.88" style="stroke: #000000; stroke-width: 0.8"/>
      </g>
     </g>
     <g id="text_10">
      <!-- 50 -->
      <g transform="translate(38.6 223.075312)scale(0.12 -0.12)">
       <use xlink:href="#FangSong-35"/>
       <use xlink:href="#FangSong-30" x="50"/>
      </g>
     </g>
    </g>
    <g id="ytick_4">
     <g id="line2d_21">
      <path d="M 57.6 174.528 
L 414.72 174.528 
" clip-path="url(#p96609b599f)" style="fill: none; stroke-dasharray: 5.12,1.28,0.8,1.28; stroke-dashoffset: 0; stroke: #b0b0b0; stroke-width: 0.8"/>
     </g>
     <g id="line2d_22">
      <g>
       <use xlink:href="#m2549db3553" x="57.6" y="174.528" style="stroke: #000000; stroke-width: 0.8"/>
      </g>
     </g>
     <g id="text_11">
      <!-- 55 -->
      <g transform="translate(38.6 178.723313)scale(0.12 -0.12)">
       <use xlink:href="#FangSong-35"/>
       <use xlink:href="#FangSong-35" x="50"/>
      </g>
     </g>
    </g>
    <g id="ytick_5">
     <g id="line2d_23">
      <path d="M 57.6 130.176 
L 414.72 130.176 
" clip-path="url(#p96609b599f)" style="fill: none; stroke-dasharray: 5.12,1.28,0.8,1.28; stroke-dashoffset: 0; stroke: #b0b0b0; stroke-width: 0.8"/>
     </g>
     <g id="line2d_24">
      <g>
       <use xlink:href="#m2549db3553" x="57.6" y="130.176" style="stroke: #000000; stroke-width: 0.8"/>
      </g>
     </g>
     <g id="text_12">
      <!-- 60 -->
      <g transform="translate(38.6 134.371312)scale(0.12 -0.12)">
       <use xlink:href="#FangSong-36"/>
       <use xlink:href="#FangSong-30" x="50"/>
      </g>
     </g>
    </g>
    <g id="ytick_6">
     <g id="line2d_25">
      <path d="M 57.6 85.824 
L 414.72 85.824 
" clip-path="url(#p96609b599f)" style="fill: none; stroke-dasharray: 5.12,1.28,0.8,1.28; stroke-dashoffset: 0; stroke: #b0b0b0; stroke-width: 0.8"/>
     </g>
     <g id="line2d_26">
      <g>
       <use xlink:href="#m2549db3553" x="57.6" y="85.824" style="stroke: #000000; stroke-width: 0.8"/>
      </g>
     </g>
     <g id="text_13">
      <!-- 65 -->
      <g transform="translate(38.6 90.019313)scale(0.12 -0.12)">
       <use xlink:href="#FangSong-36"/>
       <use xlink:href="#FangSong-35" x="50"/>
      </g>
     </g>
    </g>
    <g id="ytick_7">
     <g id="line2d_27">
      <path d="M 57.6 41.472 
L 414.72 41.472 
" clip-path="url(#p96609b599f)" style="fill: none; stroke-dasharray: 5.12,1.28,0.8,1.28; stroke-dashoffset: 0; stroke: #b0b0b0; stroke-width: 0.8"/>
     </g>
     <g id="line2d_28">
      <g>
       <use xlink:href="#m2549db3553" x="57.6" y="41.472" style="stroke: #000000; stroke-width: 0.8"/>
      </g>
     </g>
     <g id="text_14">
      <!-- 70 -->
      <g transform="translate(38.6 45.667313)scale(0.12 -0.12)">
       <defs>
        <path id="FangSong-37" d="M 2800 4100 
Q 2275 3250 1962 2437 
Q 1650 1625 1650 1025 
Q 1650 925 1662 737 
Q 1675 550 1675 300 
Q 1675 100 1612 25 
Q 1550 -50 1400 -50 
Q 1275 -50 1187 37 
Q 1100 125 1100 350 
Q 1100 825 1312 1525 
Q 1525 2225 2450 3900 
L 1200 3900 
Q 925 3900 762 3725 
Q 600 3550 525 3200 
L 375 3225 
L 550 4275 
L 2800 4275 
L 2800 4100 
z
" transform="scale(0.015625)"/>
       </defs>
       <use xlink:href="#FangSong-37"/>
       <use xlink:href="#FangSong-30" x="50"/>
      </g>
     </g>
    </g>
    <g id="text_15">
     <!-- P -->
     <g transform="translate(32.865625 177.528)rotate(-90)scale(0.12 -0.12)">
      <defs>
       <path id="FangSong-50" d="M 925 2000 
L 925 350 
Q 925 250 987 200 
Q 1050 150 1150 150 
L 1325 150 
L 1325 0 
L 125 0 
L 125 150 
L 300 150 
Q 425 150 475 200 
Q 525 250 525 350 
L 525 3925 
Q 525 4025 475 4075 
Q 425 4125 300 4125 
L 150 4125 
L 150 4275 
L 1625 4275 
Q 2250 4275 2587 3962 
Q 2925 3650 2925 3175 
Q 2925 2600 2562 2300 
Q 2200 2000 1700 2000 
L 925 2000 
z
M 1550 2150 
Q 1925 2150 2212 2375 
Q 2500 2600 2500 3150 
Q 2500 3650 2262 3887 
Q 2025 4125 1500 4125 
L 1150 4125 
Q 1050 4125 987 4075 
Q 925 4025 925 3925 
L 925 2150 
L 1550 2150 
z
" transform="scale(0.015625)"/>
      </defs>
      <use xlink:href="#FangSong-50"/>
     </g>
    </g>
   </g>
   <g id="line2d_29">
    <path d="M 73.832727 189.252864 
L 74.918528 189.785088 
L 76.00433 189.430272 
L 77.090131 189.785088 
L 78.175932 188.809344 
L 79.261733 189.430272 
L 80.347534 188.631936 
L 81.433335 189.252864 
L 82.519137 189.341568 
L 83.604938 190.93824 
L 84.690739 190.583424 
L 85.77654 189.873792 
L 86.862341 189.785088 
L 87.948142 189.341568 
L 89.033943 190.317312 
L 90.119745 190.139904 
L 91.205546 191.204352 
L 92.291347 190.93824 
L 93.377148 191.559168 
L 94.462949 190.49472 
L 95.54875 190.760832 
L 98.806154 190.760832 
L 99.891955 190.406016 
L 100.977756 190.93824 
L 102.063557 192.180096 
L 103.149358 191.82528 
L 104.23516 192.002688 
L 105.320961 192.71232 
L 106.406762 192.446208 
L 107.492563 191.293056 
L 108.578364 191.559168 
L 110.749967 191.647872 
L 111.835768 191.82528 
L 114.00737 193.067136 
L 115.093171 191.82528 
L 116.178972 192.091392 
L 117.264773 191.736576 
L 118.350575 192.357504 
L 119.436376 192.002688 
L 120.522177 192.71232 
L 121.607978 191.82528 
L 122.693779 191.293056 
L 124.865382 191.38176 
L 125.951183 192.801024 
L 127.036984 193.865472 
L 128.122785 194.220288 
L 129.208586 192.801024 
L 130.294387 192.534912 
L 131.380189 193.776768 
L 132.46599 192.801024 
L 134.637592 192.180096 
L 135.723393 192.446208 
L 136.809194 192.091392 
L 137.894995 193.59936 
L 138.980797 194.220288 
L 140.066598 193.421952 
L 141.152399 193.510656 
L 142.2382 192.534912 
L 143.324001 192.978432 
L 144.409802 192.002688 
L 145.495604 193.688064 
L 146.581405 193.59936 
L 147.667206 194.131584 
L 148.753007 194.397696 
L 149.838808 193.776768 
L 150.924609 194.04288 
L 152.01041 193.776768 
L 153.096212 194.131584 
L 154.182013 192.801024 
L 155.267814 193.59936 
L 156.353615 192.978432 
L 157.439416 193.59936 
L 158.525217 193.421952 
L 160.69682 194.131584 
L 162.868422 193.776768 
L 163.954223 192.978432 
L 165.040024 194.04288 
L 166.125825 193.776768 
L 167.211627 193.688064 
L 168.297428 193.15584 
L 169.383229 193.688064 
L 171.554831 192.71232 
L 172.640632 193.15584 
L 173.726434 194.131584 
L 174.812235 193.244544 
L 175.898036 192.978432 
L 176.983837 192.2688 
L 178.069638 192.534912 
L 179.155439 192.534912 
L 180.24124 193.776768 
L 181.327042 193.15584 
L 182.412843 193.333248 
L 183.498644 193.244544 
L 184.584445 192.2688 
L 185.670246 192.2688 
L 186.756047 192.002688 
L 187.841849 193.510656 
L 188.92765 192.2688 
L 190.013451 192.357504 
L 191.099252 192.2688 
L 192.185053 193.865472 
L 193.270854 192.091392 
L 194.356656 192.623616 
L 195.442457 191.82528 
L 196.528258 191.82528 
L 198.69986 191.470464 
L 199.785661 192.357504 
L 201.957264 192.623616 
L 203.043065 192.446208 
L 204.128866 193.15584 
L 205.214667 192.889728 
L 207.386269 192.002688 
L 208.472071 192.091392 
L 209.557872 191.647872 
L 210.643673 191.82528 
L 211.729474 191.293056 
L 212.815275 192.180096 
L 213.901076 192.002688 
L 214.986877 192.2688 
L 216.072679 191.559168 
L 217.15848 192.091392 
L 218.244281 191.115648 
L 219.330082 191.647872 
L 221.501684 190.672128 
L 222.587486 190.760832 
L 223.673287 189.873792 
L 224.759088 190.672128 
L 225.844889 188.898048 
L 226.93069 181.269504 
L 228.016491 176.035968 
L 229.102292 174.705408 
L 230.188094 171.689472 
L 231.273895 170.713728 
L 234.531298 173.907072 
L 235.617099 174.350592 
L 236.702901 175.326336 
L 237.788702 175.148928 
L 238.874503 174.794112 
L 239.960304 175.237632 
L 241.046105 176.035968 
L 242.131906 175.681152 
L 243.217708 175.503744 
L 244.303509 176.213376 
L 245.38931 175.41504 
L 246.475111 175.592448 
L 247.560912 176.479488 
L 248.646713 176.124672 
L 249.732514 176.213376 
L 250.818316 175.41504 
L 251.904117 176.390784 
L 252.989918 175.85856 
L 254.075719 177.455232 
L 255.16152 177.366528 
L 256.247321 177.721344 
L 257.333123 177.18912 
L 258.418924 176.923008 
L 259.504725 177.455232 
L 260.590526 176.834304 
L 261.676327 177.63264 
L 262.762128 177.63264 
L 263.847929 178.430976 
L 264.933731 178.07616 
L 266.019532 178.697088 
L 268.191134 178.07616 
L 269.276935 178.164864 
L 270.362736 177.277824 
L 271.448538 177.18912 
L 272.534339 176.7456 
L 273.62014 178.07616 
L 274.705941 178.430976 
L 275.791742 178.342272 
L 276.877543 178.9632 
L 277.963344 178.51968 
L 279.049146 178.608384 
L 280.134947 177.366528 
L 282.306549 178.874496 
L 283.39235 179.051904 
L 284.478151 178.9632 
L 285.563953 178.608384 
L 286.649754 178.9632 
L 287.735555 178.07616 
L 288.821356 179.051904 
L 289.907157 178.608384 
L 290.992958 178.874496 
L 292.07876 177.63264 
L 293.164561 178.9632 
L 294.250362 178.430976 
L 297.507765 179.85024 
L 298.593566 179.938944 
L 299.679368 179.229312 
L 300.765169 180.29376 
L 301.85097 180.205056 
L 302.936771 180.73728 
L 304.022572 180.73728 
L 305.108373 180.471168 
L 306.194175 178.874496 
L 307.279976 178.430976 
L 308.365777 174.705408 
L 309.451578 172.75392 
L 310.537379 169.560576 
L 311.62318 168.76224 
L 312.708981 167.43168 
L 313.794783 167.697792 
L 314.880584 167.43168 
L 315.966385 169.117056 
L 318.137987 175.592448 
L 319.223788 177.011712 
L 320.30959 177.100416 
L 321.395391 177.987456 
L 322.481192 179.051904 
L 323.566993 178.430976 
L 324.652794 176.568192 
L 325.738595 177.63264 
L 326.824396 177.366528 
L 327.910198 178.51968 
L 328.995999 176.834304 
L 330.0818 177.810048 
L 331.167601 177.277824 
L 332.253402 177.277824 
L 334.425005 176.568192 
L 335.510806 177.63264 
L 337.682408 180.116352 
L 338.768209 180.29376 
L 339.85401 181.713024 
L 342.025613 180.914688 
L 343.111414 180.825984 
L 344.197215 180.914688 
L 345.283016 180.29376 
L 346.368817 180.73728 
L 347.454618 180.825984 
L 348.54042 181.1808 
L 349.626221 181.713024 
L 350.712022 182.51136 
L 351.797823 182.333952 
L 352.883624 182.866176 
L 353.969425 181.801728 
L 355.055227 181.1808 
L 356.141028 181.713024 
L 357.226829 181.713024 
L 358.31263 181.535616 
L 359.398431 180.648576 
L 360.484232 182.156544 
L 361.570033 181.801728 
L 362.655835 180.648576 
L 363.741636 180.29376 
L 364.827437 182.422656 
L 366.999039 179.85024 
L 369.170642 179.229312 
L 370.256443 179.85024 
L 371.342244 179.85024 
L 372.428045 180.825984 
L 373.513846 180.027648 
L 374.599647 181.003392 
L 375.685448 179.318016 
L 377.857051 179.229312 
L 378.942852 179.318016 
L 380.028653 179.140608 
L 381.114454 178.07616 
L 382.200255 178.608384 
L 383.286057 178.874496 
L 384.371858 178.07616 
L 385.457659 178.697088 
L 386.54346 178.608384 
L 387.629261 178.253568 
L 388.715062 175.947264 
L 390.886665 173.818368 
L 391.972466 171.86688 
L 393.058267 139.578624 
L 394.144068 121.039488 
L 395.229869 112.080384 
L 396.31567 105.604992 
L 397.401472 103.387392 
L 398.487273 106.66944 
L 398.487273 106.66944 
" clip-path="url(#p96609b599f)" style="fill: none; stroke: #000000; stroke-width: 0.5; stroke-linecap: square"/>
   </g>
   <g id="line2d_30">
    <path d="M 73.832727 189.252864 
L 74.918528 189.785088 
L 76.00433 189.430272 
L 77.090131 189.785088 
L 78.175932 188.809344 
L 79.261733 189.430272 
L 80.347534 188.631936 
L 81.433335 189.252864 
L 82.519137 189.341568 
L 83.604938 190.93824 
L 84.690739 190.583424 
L 85.77654 189.873792 
L 86.862341 189.785088 
L 87.948142 189.341568 
L 89.033943 190.317312 
L 90.119745 190.139904 
L 91.205546 191.204352 
L 92.291347 190.93824 
L 93.377148 191.559168 
L 94.462949 190.49472 
L 95.54875 190.760832 
L 98.806154 190.760832 
L 99.891955 190.406016 
L 100.977756 190.93824 
L 102.063557 192.180096 
L 103.149358 191.82528 
L 104.23516 192.002688 
L 105.320961 192.71232 
L 106.406762 192.446208 
L 107.492563 191.293056 
L 108.578364 191.559168 
L 110.749967 191.647872 
L 111.835768 191.82528 
L 114.00737 193.067136 
L 115.093171 191.82528 
L 116.178972 192.091392 
L 117.264773 191.736576 
L 118.350575 192.357504 
L 119.436376 192.002688 
L 120.522177 192.71232 
L 121.607978 191.82528 
L 122.693779 191.293056 
L 124.865382 191.38176 
L 125.951183 192.801024 
L 127.036984 193.865472 
L 128.122785 194.220288 
L 129.208586 192.801024 
L 130.294387 192.534912 
L 131.380189 193.776768 
L 132.46599 192.801024 
L 134.637592 192.180096 
L 135.723393 192.446208 
L 136.809194 192.091392 
L 137.894995 193.59936 
L 138.980797 194.220288 
L 140.066598 193.421952 
L 141.152399 193.510656 
L 142.2382 192.534912 
L 143.324001 192.978432 
L 144.409802 192.002688 
L 145.495604 193.688064 
L 146.581405 193.59936 
L 147.667206 194.131584 
L 148.753007 194.397696 
L 149.838808 193.776768 
L 150.924609 194.04288 
L 152.01041 193.776768 
L 153.096212 194.131584 
L 154.182013 192.801024 
L 155.267814 193.59936 
L 156.353615 192.978432 
L 157.439416 193.59936 
L 158.525217 193.421952 
L 160.69682 194.131584 
L 162.868422 193.776768 
L 163.954223 192.978432 
L 165.040024 194.04288 
L 166.125825 193.776768 
L 167.211627 193.688064 
L 168.297428 193.15584 
L 169.383229 193.688064 
L 171.554831 192.71232 
L 172.640632 193.15584 
L 173.726434 194.131584 
L 174.812235 193.244544 
L 175.898036 192.978432 
L 176.983837 192.2688 
L 178.069638 192.534912 
L 179.155439 192.534912 
L 180.24124 193.776768 
L 181.327042 193.15584 
L 182.412843 193.333248 
L 183.498644 193.244544 
L 184.584445 192.2688 
L 185.670246 192.2688 
L 186.756047 192.002688 
L 187.841849 193.510656 
L 188.92765 192.2688 
L 190.013451 192.357504 
L 191.099252 192.2688 
L 192.185053 193.865472 
L 193.270854 192.091392 
L 194.356656 192.623616 
L 195.442457 191.82528 
L 196.528258 191.82528 
L 198.69986 191.470464 
L 199.785661 192.357504 
L 201.957264 192.623616 
L 203.043065 192.446208 
L 204.128866 193.15584 
L 205.214667 192.889728 
L 207.386269 192.002688 
L 208.472071 192.091392 
L 209.557872 191.647872 
L 210.643673 191.82528 
L 211.729474 191.293056 
L 212.815275 192.180096 
L 213.901076 192.002688 
L 214.986877 192.2688 
L 216.072679 191.559168 
L 217.15848 192.091392 
L 218.244281 191.115648 
L 219.330082 191.647872 
L 221.501684 190.672128 
L 222.587486 190.760832 
L 223.673287 189.873792 
L 224.759088 190.672128 
L 225.844889 188.898048 
L 226.93069 181.269504 
L 228.016491 176.035968 
L 229.102292 174.705408 
L 230.188094 171.689472 
L 231.273895 170.713728 
L 234.531298 173.907072 
L 235.617099 174.350592 
L 236.702901 175.326336 
L 237.788702 175.148928 
L 238.874503 174.794112 
L 239.960304 175.237632 
L 241.046105 176.035968 
L 242.131906 175.681152 
L 243.217708 175.503744 
L 244.303509 176.213376 
L 245.38931 175.41504 
L 246.475111 175.592448 
L 247.560912 176.479488 
L 248.646713 176.124672 
L 249.732514 176.213376 
L 250.818316 175.41504 
L 251.904117 176.390784 
L 252.989918 175.85856 
L 254.075719 177.455232 
L 255.16152 177.366528 
L 256.247321 177.721344 
L 257.333123 177.18912 
L 258.418924 176.923008 
L 259.504725 177.455232 
L 260.590526 176.834304 
L 261.676327 177.63264 
L 262.762128 177.63264 
L 263.847929 178.430976 
L 264.933731 178.07616 
L 266.019532 178.697088 
L 268.191134 178.07616 
L 269.276935 178.164864 
L 270.362736 177.277824 
L 271.448538 177.18912 
L 272.534339 176.7456 
L 273.62014 178.07616 
L 274.705941 178.430976 
L 275.791742 178.342272 
L 276.877543 178.9632 
L 277.963344 178.51968 
L 279.049146 178.608384 
L 280.134947 177.366528 
L 282.306549 178.874496 
L 283.39235 179.051904 
L 284.478151 178.9632 
L 285.563953 178.608384 
L 286.649754 178.9632 
L 287.735555 178.07616 
L 288.821356 179.051904 
L 289.907157 178.608384 
L 290.992958 178.874496 
L 292.07876 177.63264 
L 293.164561 178.9632 
L 294.250362 178.430976 
L 297.507765 179.85024 
L 298.593566 179.938944 
L 299.679368 179.229312 
L 300.765169 180.29376 
L 301.85097 180.205056 
L 302.936771 180.73728 
L 304.022572 180.73728 
L 305.108373 180.471168 
L 306.194175 178.874496 
L 307.279976 178.430976 
L 308.365777 174.705408 
L 309.451578 172.75392 
L 310.537379 169.560576 
L 311.62318 168.76224 
L 312.708981 167.43168 
L 313.794783 167.697792 
L 314.880584 167.43168 
L 315.966385 169.117056 
L 318.137987 175.592448 
L 319.223788 177.011712 
L 320.30959 177.100416 
L 321.395391 177.987456 
L 322.481192 179.051904 
L 323.566993 178.430976 
L 324.652794 176.568192 
L 325.738595 177.63264 
L 326.824396 177.366528 
L 327.910198 178.51968 
L 328.995999 176.834304 
L 330.0818 177.810048 
L 331.167601 177.277824 
L 332.253402 177.277824 
L 334.425005 176.568192 
L 335.510806 177.63264 
L 337.682408 180.116352 
L 338.768209 180.29376 
L 339.85401 181.713024 
L 342.025613 180.914688 
L 343.111414 180.825984 
L 344.197215 180.914688 
L 345.283016 180.29376 
L 346.368817 180.73728 
L 347.454618 180.825984 
L 348.54042 181.1808 
L 349.626221 181.713024 
L 350.712022 182.51136 
L 351.797823 182.333952 
L 352.883624 182.866176 
L 353.969425 181.801728 
L 355.055227 181.1808 
L 356.141028 181.713024 
L 357.226829 181.713024 
L 358.31263 181.535616 
L 359.398431 180.648576 
L 360.484232 182.156544 
L 361.570033 181.801728 
L 362.655835 180.648576 
L 363.741636 180.29376 
L 364.827437 182.422656 
L 366.999039 179.85024 
L 369.170642 179.229312 
L 370.256443 179.85024 
L 371.342244 179.85024 
L 372.428045 180.825984 
L 373.513846 180.027648 
L 374.599647 181.003392 
L 375.685448 179.318016 
L 377.857051 179.229312 
L 378.942852 179.318016 
L 380.028653 179.140608 
L 381.114454 178.07616 
L 382.200255 178.608384 
L 383.286057 178.874496 
L 384.371858 178.07616 
L 385.457659 178.697088 
L 386.54346 178.608384 
L 387.629261 178.253568 
L 388.715062 175.947264 
L 390.886665 173.818368 
M 396.31567 105.604992 
L 397.401472 103.387392 
L 398.487273 106.66944 
L 398.487273 106.66944 
" clip-path="url(#p96609b599f)" style="fill: none; stroke: #0000ff; stroke-width: 0.8; stroke-linecap: square"/>
   </g>
   <g id="line2d_31">
    <path d="M 214.986877 192.2688 
L 216.072679 191.559168 
M 225.844889 188.898048 
L 226.93069 181.269504 
L 226.93069 181.269504 
" clip-path="url(#p96609b599f)" style="fill: none; stroke: #008000; stroke-width: 0.8; stroke-linecap: square"/>
   </g>
   <g id="line2d_32">
    <path d="M 0 0 
" clip-path="url(#p96609b599f)" style="fill: none; stroke: #bfbf00; stroke-width: 0.8; stroke-linecap: square"/>
   </g>
   <g id="line2d_33">
    <path d="M 390.886665 173.818368 
L 391.972466 171.86688 
L 393.058267 139.578624 
L 394.144068 121.039488 
L 395.229869 112.080384 
L 396.31567 105.604992 
L 396.31567 105.604992 
" clip-path="url(#p96609b599f)" style="fill: none; stroke: #ff0000; stroke-width: 0.8; stroke-linecap: square"/>
   </g>
   <g id="patch_3">
    <path d="M 57.6 307.584 
L 57.6 41.472 
" style="fill: none; stroke: #000000; stroke-width: 0.8; stroke-linejoin: miter; stroke-linecap: square"/>
   </g>
   <g id="patch_4">
    <path d="M 414.72 307.584 
L 414.72 41.472 
" style="fill: none; stroke: #000000; stroke-width: 0.8; stroke-linejoin: miter; stroke-linecap: square"/>
   </g>
   <g id="patch_5">
    <path d="M 57.6 307.584 
L 414.72 307.584 
" style="fill: none; stroke: #000000; stroke-width: 0.8; stroke-linejoin: miter; stroke-linecap: square"/>
   </g>
   <g id="patch_6">
    <path d="M 57.6 41.472 
L 414.72 41.472 
" style="fill: none; stroke: #000000; stroke-width: 0.8; stroke-linejoin: miter; stroke-linecap: square"/>
   </g>
  </g>
  <g id="axes_2">
   <g id="matplotlib.axis_3">
    <g id="ytick_8">
     <g id="line2d_34">
      <defs>
       <path id="m759c0afd12" d="M 0 0 
L 3.5 0 
" style="stroke: #000000; stroke-width: 0.8"/>
      </defs>
      <g>
       <use xlink:href="#m759c0afd12" x="414.72" y="307.584" style="stroke: #000000; stroke-width: 0.8"/>
      </g>
     </g>
    </g>
    <g id="ytick_9">
     <g id="line2d_35">
      <g>
       <use xlink:href="#m759c0afd12" x="414.72" y="278.016" style="stroke: #000000; stroke-width: 0.8"/>
      </g>
     </g>
     <g id="text_16">
      <!-- IV -->
      <g transform="translate(421.72 282.211312)scale(0.12 -0.12)">
       <defs>
        <path id="FangSong-49" d="M 575 4125 
L 575 4275 
L 2575 4275 
L 2575 4125 
L 2000 4125 
Q 1900 4125 1837 4075 
Q 1775 4025 1775 3925 
L 1775 350 
Q 1775 250 1837 200 
Q 1900 150 2000 150 
L 2575 150 
L 2575 0 
L 575 0 
L 575 150 
L 1150 150 
Q 1275 150 1325 200 
Q 1375 250 1375 350 
L 1375 3925 
Q 1375 4025 1325 4075 
Q 1275 4125 1150 4125 
L 575 4125 
z
" transform="scale(0.015625)"/>
        <path id="FangSong-56" d="M 2100 4125 
L 2100 4275 
L 3000 4275 
L 3000 4125 
L 2900 4125 
Q 2800 4125 2712 4050 
Q 2625 3975 2575 3775 
L 1550 0 
L 1400 0 
L 475 3775 
Q 450 3950 387 4037 
Q 325 4125 200 4125 
L 75 4125 
L 75 4275 
L 1150 4275 
L 1150 4125 
L 1050 4125 
Q 925 4125 887 4050 
Q 850 3975 875 3850 
L 1575 925 
L 1625 925 
L 2375 3775 
Q 2425 3950 2375 4037 
Q 2325 4125 2175 4125 
L 2100 4125 
z
" transform="scale(0.015625)"/>
       </defs>
       <use xlink:href="#FangSong-49"/>
       <use xlink:href="#FangSong-56" x="50"/>
      </g>
     </g>
    </g>
    <g id="ytick_10">
     <g id="line2d_36">
      <g>
       <use xlink:href="#m759c0afd12" x="414.72" y="248.448" style="stroke: #000000; stroke-width: 0.8"/>
      </g>
     </g>
     <g id="text_17">
      <!-- III -->
      <g transform="translate(421.72 252.643312)scale(0.12 -0.12)">
       <use xlink:href="#FangSong-49"/>
       <use xlink:href="#FangSong-49" x="50"/>
       <use xlink:href="#FangSong-49" x="100"/>
      </g>
     </g>
    </g>
    <g id="ytick_11">
     <g id="line2d_37">
      <g>
       <use xlink:href="#m759c0afd12" x="414.72" y="218.88" style="stroke: #000000; stroke-width: 0.8"/>
      </g>
     </g>
     <g id="text_18">
      <!-- II -->
      <g transform="translate(421.72 223.075312)scale(0.12 -0.12)">
       <use xlink:href="#FangSong-49"/>
       <use xlink:href="#FangSong-49" x="50"/>
      </g>
     </g>
    </g>
    <g id="ytick_12">
     <g id="line2d_38">
      <g>
       <use xlink:href="#m759c0afd12" x="414.72" y="189.312" style="stroke: #000000; stroke-width: 0.8"/>
      </g>
     </g>
     <g id="text_19">
      <!-- I -->
      <g transform="translate(421.72 193.507313)scale(0.12 -0.12)">
       <use xlink:href="#FangSong-49"/>
      </g>
     </g>
    </g>
    <g id="ytick_13">
     <g id="line2d_39">
      <g>
       <use xlink:href="#m759c0afd12" x="414.72" y="159.744" style="stroke: #000000; stroke-width: 0.8"/>
      </g>
     </g>
    </g>
    <g id="ytick_14">
     <g id="line2d_40">
      <g>
       <use xlink:href="#m759c0afd12" x="414.72" y="130.176" style="stroke: #000000; stroke-width: 0.8"/>
      </g>
     </g>
    </g>
    <g id="ytick_15">
     <g id="line2d_41">
      <g>
       <use xlink:href="#m759c0afd12" x="414.72" y="100.608" style="stroke: #000000; stroke-width: 0.8"/>
      </g>
     </g>
    </g>
    <g id="ytick_16">
     <g id="line2d_42">
      <g>
       <use xlink:href="#m759c0afd12" x="414.72" y="71.04" style="stroke: #000000; stroke-width: 0.8"/>
      </g>
     </g>
    </g>
    <g id="ytick_17">
     <g id="line2d_43">
      <g>
       <use xlink:href="#m759c0afd12" x="414.72" y="41.472" style="stroke: #000000; stroke-width: 0.8"/>
      </g>
     </g>
    </g>
    <g id="text_20">
     <!-- 风险等级 -->
     <g transform="translate(453.141875 198.528)rotate(-90)scale(0.12 -0.12)">
      <defs>
       <path id="FangSong-98ce" d="M 5850 1075 
Q 5725 -200 5800 -625 
Q 4675 0 4400 1200 
Q 4125 2400 4250 4525 
L 1725 4225 
Q 1750 2450 1537 1375 
Q 1325 300 550 -575 
L 475 -500 
Q 1125 325 1300 1312 
Q 1475 2300 1512 3387 
Q 1550 4475 1400 4950 
L 1500 4975 
L 1725 4450 
L 4250 4750 
L 4425 5050 
L 4725 4800 
L 4500 4550 
Q 4375 2725 4575 1537 
Q 4775 350 5550 -75 
L 5750 1075 
L 5850 1075 
z
M 2200 3500 
L 3000 2450 
Q 3400 3150 3500 3462 
Q 3600 3775 3500 3975 
L 3575 4000 
L 3900 3500 
Q 3800 3450 3675 3225 
Q 3550 3000 3150 2275 
Q 3600 1625 4000 1125 
Q 3900 875 3825 675 
Q 3550 1250 3025 2025 
Q 2375 1000 1550 300 
L 1475 400 
Q 2250 1150 2875 2250 
L 2125 3450 
L 2200 3500 
z
" transform="scale(0.015625)"/>
       <path id="FangSong-9669" d="M 1050 -200 
Q 1075 -650 975 -600 
L 725 -175 
Q 850 -25 825 400 
L 850 4200 
Q 850 4625 750 5000 
L 850 5050 
L 1050 4550 
L 2025 4675 
L 2225 4975 
L 2550 4725 
Q 2350 4550 2187 4212 
Q 2025 3875 1700 3300 
Q 2650 2300 1875 1250 
Q 1700 1600 1175 2150 
L 1225 2225 
L 1875 1750 
Q 2200 2375 1550 3275 
L 2025 4450 
L 1075 4325 
L 1050 -200 
z
M 4925 2575 
Q 4700 2975 3700 4475 
Q 3100 3100 2300 2275 
L 2225 2350 
Q 2900 3225 3275 4100 
Q 3650 4975 3600 5225 
L 3675 5250 
L 3925 4850 
Q 3850 4800 3775 4650 
Q 4725 3250 4912 3087 
Q 5100 2925 5187 2875 
Q 5275 2825 5925 2725 
L 5925 2600 
Q 5275 2600 4925 2575 
z
M 4600 2350 
L 4875 1875 
Q 4775 1800 4637 1450 
Q 4500 1100 4100 25 
Q 5325 125 5350 150 
L 5600 -75 
Q 5050 -125 3737 -225 
Q 2425 -325 2275 -325 
L 1975 -75 
Q 2350 -125 3950 25 
Q 4325 1125 4437 1637 
Q 4550 2150 4525 2300 
L 4600 2350 
z
M 4625 2825 
Q 3725 2725 3050 2625 
L 2800 2825 
Q 3600 2900 4375 3025 
L 4625 2825 
z
M 3200 850 
Q 3125 600 2975 425 
Q 2850 975 2475 1850 
L 2550 1950 
Q 3025 1175 3200 850 
z
M 3425 2325 
Q 3775 1550 3925 1175 
Q 3800 1000 3675 850 
Q 3600 1250 3325 2275 
L 3425 2325 
z
" transform="scale(0.015625)"/>
       <path id="FangSong-7b49" d="M 4475 3300 
Q 4275 3775 4075 4100 
L 3700 4075 
Q 3525 3825 3300 3550 
L 3400 3425 
Q 3275 3300 3275 3150 
L 3275 3000 
Q 4125 3125 4300 3175 
L 4600 2950 
Q 4250 2925 3275 2800 
L 3275 2225 
Q 5300 2400 5525 2475 
L 5800 2225 
Q 5425 2225 3800 2075 
L 4100 1825 
Q 3975 1700 3975 1625 
L 3975 1475 
Q 5000 1550 5250 1650 
L 5550 1400 
Q 5100 1375 3975 1250 
L 3975 75 
Q 4000 -375 3850 -650 
Q 3525 -275 2900 225 
L 2950 325 
L 3675 -100 
Q 3725 -150 3750 100 
L 3750 1225 
L 2225 1125 
Q 2525 825 2725 600 
Q 2625 400 2525 225 
Q 2325 700 2075 1100 
Q 1525 1050 1325 1000 
L 1075 1250 
Q 1525 1225 3725 1450 
L 3725 1675 
Q 3725 1850 3675 2050 
Q 1175 1825 900 1775 
L 650 2025 
Q 1100 2025 3050 2200 
L 3050 2775 
Q 2100 2675 1950 2600 
L 1625 2850 
Q 1975 2850 3050 2975 
L 3050 3350 
Q 3025 3550 2950 3775 
L 3025 3825 
L 3200 3650 
Q 3600 4250 3725 4650 
Q 3850 5050 3850 5250 
L 3950 5300 
L 4225 4900 
Q 4125 4825 4037 4650 
Q 3950 4475 3800 4275 
Q 5000 4400 5275 4500 
L 5525 4250 
Q 5175 4225 4225 4125 
Q 4550 3825 4675 3675 
Q 4600 3475 4475 3300 
z
M 2150 5275 
L 2425 4800 
Q 2300 4775 2187 4600 
Q 2075 4425 1925 4200 
Q 2900 4350 3150 4450 
L 3375 4200 
Q 3050 4175 2150 4050 
Q 2450 3700 2625 3475 
Q 2550 3275 2425 3100 
Q 2225 3550 2000 4025 
L 1775 4000 
Q 1275 3350 725 2875 
L 650 2975 
Q 1175 3475 1637 4225 
Q 2100 4975 2075 5250 
L 2150 5275 
z
" transform="scale(0.015625)"/>
       <path id="FangSong-7ea7" d="M 2025 3250 
Q 2300 3600 2225 3875 
L 2300 3900 
L 2525 3400 
Q 2475 3425 2025 2875 
Q 1575 2275 1200 1825 
L 2475 2075 
L 2500 2000 
Q 1200 1625 925 1425 
L 675 1800 
L 950 1825 
Q 1450 2400 1900 3075 
Q 1025 2900 825 2750 
L 600 3125 
L 825 3125 
Q 1075 3450 1462 4200 
Q 1850 4950 1700 5150 
L 1800 5200 
L 2125 4650 
Q 2025 4700 1775 4300 
Q 1525 3900 1075 3125 
L 2025 3250 
z
M 2400 1225 
Q 1050 300 900 75 
L 500 350 
Q 850 400 2350 1325 
L 2400 1225 
z
M 3550 2800 
Q 3575 2625 3800 2200 
Q 4025 1775 4225 1450 
Q 4775 2275 5000 3025 
L 4350 2925 
L 4175 2800 
L 3925 3125 
L 4125 3200 
L 4675 4475 
L 3450 4275 
L 3750 4075 
Q 3650 4050 3575 3762 
Q 3500 3475 3300 2675 
L 3550 2800 
z
M 3275 2600 
Q 2825 1125 1825 -50 
L 1725 -25 
Q 3100 1825 3375 4275 
Q 2900 4200 2850 4150 
L 2525 4425 
Q 3025 4425 4625 4700 
L 4850 4950 
L 5175 4650 
L 4950 4500 
L 4350 3150 
L 4975 3250 
L 5150 3450 
L 5475 3175 
L 5225 2975 
Q 4925 2075 4350 1225 
Q 4725 575 4875 375 
Q 5025 175 5175 25 
Q 5325 -125 5925 -175 
L 5925 -300 
L 4975 -375 
Q 5000 -300 4812 62 
Q 4625 425 4225 1075 
Q 3550 100 2250 -650 
L 2200 -550 
Q 3475 300 4100 1300 
Q 3850 1800 3600 2200 
Q 3350 2600 3275 2600 
z
" transform="scale(0.015625)"/>
      </defs>
      <use xlink:href="#FangSong-98ce"/>
      <use xlink:href="#FangSong-9669" x="100"/>
      <use xlink:href="#FangSong-7b49" x="200"/>
      <use xlink:href="#FangSong-7ea7" x="300"/>
     </g>
    </g>
   </g>
   <g id="line2d_44">
    <path d="M 73.832727 278.016 
L 214.986877 278.016 
L 216.072679 248.448 
L 217.15848 278.016 
L 225.844889 278.016 
L 226.93069 248.448 
L 228.016491 278.016 
L 390.886665 278.016 
L 391.972466 189.312 
L 396.31567 189.312 
L 397.401472 278.016 
L 398.487273 278.016 
L 398.487273 278.016 
" clip-path="url(#p96609b599f)" style="fill: none; stroke: #000000; stroke-width: 0.5; stroke-linecap: square"/>
   </g>
   <g id="line2d_45">
    <path d="M 73.832727 278.016 
L 214.986877 278.016 
L 216.072679 248.448 
L 217.15848 278.016 
L 225.844889 278.016 
L 226.93069 248.448 
L 228.016491 278.016 
L 390.886665 278.016 
M 396.31567 189.312 
L 397.401472 278.016 
L 398.487273 278.016 
L 398.487273 278.016 
" clip-path="url(#p96609b599f)" style="fill: none; stroke: #0000ff; stroke-linecap: square"/>
   </g>
   <g id="line2d_46">
    <path d="M 214.986877 278.016 
L 216.072679 248.448 
M 225.844889 278.016 
L 226.93069 248.448 
L 226.93069 248.448 
" clip-path="url(#p96609b599f)" style="fill: none; stroke: #008000; stroke-linecap: square"/>
   </g>
   <g id="line2d_47">
    <path d="M 0 0 
" clip-path="url(#p96609b599f)" style="fill: none; stroke: #bfbf00; stroke-linecap: square"/>
   </g>
   <g id="line2d_48">
    <path d="M 390.886665 278.016 
L 391.972466 189.312 
L 396.31567 189.312 
L 396.31567 189.312 
" clip-path="url(#p96609b599f)" style="fill: none; stroke: #ff0000; stroke-linecap: square"/>
   </g>
   <g id="patch_7">
    <path d="M 57.6 307.584 
L 57.6 41.472 
" style="fill: none; stroke: #000000; stroke-width: 0.8; stroke-linejoin: miter; stroke-linecap: square"/>
   </g>
   <g id="patch_8">
    <path d="M 414.72 307.584 
L 414.72 41.472 
" style="fill: none; stroke: #000000; stroke-width: 0.8; stroke-linejoin: miter; stroke-linecap: square"/>
   </g>
   <g id="patch_9">
    <path d="M 57.6 307.584 
L 414.72 307.584 
" style="fill: none; stroke: #000000; stroke-width: 0.8; stroke-linejoin: miter; stroke-linecap: square"/>
   </g>
   <g id="patch_10">
    <path d="M 57.6 41.472 
L 414.72 41.472 
" style="fill: none; stroke: #000000; stroke-width: 0.8; stroke-linejoin: miter; stroke-linecap: square"/>
   </g>
   <g id="text_21">
    <!-- 预警结果可视化 -->
    <g transform="translate(185.76 35.472)scale(0.144 -0.144)">
     <defs>
      <path id="FangSong-9884" d="M 3475 1275 
Q 3525 700 3400 825 
L 3150 1225 
Q 3275 1350 3250 1700 
L 3250 3075 
Q 3250 3550 3175 3750 
L 3250 3800 
L 3450 3450 
L 4000 3500 
Q 4175 4150 4150 4550 
Q 3450 4450 3200 4375 
L 2900 4625 
Q 3275 4625 4425 4775 
Q 5575 4925 5650 4975 
L 5925 4700 
Q 5525 4700 4225 4550 
L 4500 4275 
Q 4375 4175 4125 3525 
L 5100 3650 
L 5225 3900 
L 5550 3650 
L 5375 3450 
Q 5325 1625 5300 1225 
Q 5275 825 5200 900 
L 4975 1350 
Q 5100 1400 5112 1887 
Q 5125 2375 5150 3425 
L 3475 3225 
L 3475 1275 
z
M 2300 4575 
Q 1175 4450 1000 4400 
L 700 4650 
Q 1025 4625 2350 4800 
L 2475 4975 
L 2775 4675 
Q 2600 4600 1825 3700 
L 2150 3525 
Q 2125 3350 2050 3150 
L 2525 3200 
L 2625 3425 
L 2950 3175 
Q 2775 3050 2250 2250 
L 2200 2325 
L 2475 2975 
L 1875 2900 
L 1850 575 
Q 1875 -125 1650 -525 
Q 1375 -150 750 475 
L 800 525 
L 1575 0 
Q 1625 200 1625 475 
L 1650 2875 
Q 850 2775 750 2750 
L 475 3000 
Q 825 3000 1950 3150 
Q 1850 3425 1200 3900 
L 1250 4000 
L 1725 3750 
L 2300 4575 
z
M 4100 2825 
L 4500 2500 
Q 4425 2375 4400 2137 
Q 4375 1900 4287 1387 
Q 4200 875 3825 375 
Q 3450 -125 2300 -625 
L 2275 -525 
Q 3300 0 3675 537 
Q 4050 1075 4125 1825 
Q 4200 2575 4050 2750 
L 4100 2825 
z
M 4500 1050 
Q 5400 225 5775 -50 
Q 5775 -275 5650 -500 
Q 5350 -25 4425 975 
L 4500 1050 
z
" transform="scale(0.015625)"/>
      <path id="FangSong-8b66" d="M 4300 775 
L 4575 525 
L 4400 375 
L 4300 -75 
L 4475 -300 
L 2250 -450 
Q 2250 -675 2187 -637 
Q 2125 -600 1975 -375 
Q 2050 -250 2025 37 
Q 2000 325 1900 600 
L 2000 675 
L 2200 400 
L 4125 600 
L 4300 775 
z
M 3425 2200 
Q 3375 2050 3300 1875 
Q 4900 2075 5100 2150 
L 5425 1900 
Q 5025 1875 3187 1687 
Q 1350 1500 1075 1425 
L 725 1650 
Q 1325 1650 3275 1875 
Q 3150 2125 3000 2350 
Q 2925 2100 2825 1900 
Q 2575 2125 2275 2325 
L 2300 2425 
L 2750 2250 
Q 2875 2625 3025 3575 
Q 1925 3375 1750 3325 
L 1525 3400 
Q 1125 2800 525 2275 
L 400 2350 
Q 1000 2925 1225 3337 
Q 1450 3750 1475 3950 
L 1550 3975 
L 1775 3675 
L 1600 3500 
Q 2125 3575 2950 3775 
L 3125 4000 
L 3375 3750 
L 3250 3575 
L 3025 2475 
Q 3250 2325 3425 2200 
z
M 4400 2925 
Q 4025 2475 3525 2150 
L 3450 2250 
Q 3900 2600 4250 3050 
Q 3925 3400 3800 3500 
Q 3650 3250 3400 2875 
L 3300 2950 
Q 3725 3750 3875 4350 
Q 4025 4950 3950 5175 
L 4050 5225 
L 4350 4850 
Q 4250 4750 4187 4562 
Q 4125 4375 4000 3950 
Q 4375 4025 4762 4125 
Q 5150 4225 5250 4350 
L 5600 4125 
Q 5300 4075 4800 3950 
L 5025 3625 
Q 4900 3600 4775 3437 
Q 4650 3275 4525 3075 
Q 4875 2775 5012 2687 
Q 5150 2600 5287 2562 
Q 5425 2525 5950 2500 
L 5975 2375 
Q 5475 2350 5125 2250 
Q 5025 2350 4400 2925 
z
M 1775 3950 
Q 1800 4000 1800 4125 
Q 1025 4025 925 3975 
L 625 4200 
Q 1100 4200 1800 4325 
L 1800 4500 
Q 1800 4750 1700 5025 
L 1750 5100 
L 2125 4825 
Q 2025 4625 2025 4475 
L 2025 4350 
L 2675 4425 
Q 2700 4625 2725 4812 
Q 2750 5000 2675 5175 
L 2750 5225 
L 3050 4900 
Q 2975 4825 2950 4725 
Q 2925 4625 2875 4450 
Q 3200 4525 3450 4600 
L 3700 4400 
Q 3425 4375 2850 4275 
Q 2775 4000 2625 3775 
L 2525 3800 
Q 2575 4000 2625 4225 
L 2025 4150 
L 2025 3875 
Q 2000 3650 1975 3725 
L 1775 3950 
z
M 4075 -100 
L 4175 425 
L 2225 200 
L 2250 -250 
L 4075 -100 
z
M 2425 3325 
L 2700 3075 
L 2550 2975 
L 2475 2725 
L 2600 2525 
L 1700 2375 
Q 1700 2225 1650 2225 
Q 1625 2225 1425 2400 
Q 1450 2600 1437 2762 
Q 1425 2925 1375 3175 
L 1450 3250 
L 1650 3025 
L 2325 3200 
L 2425 3325 
z
M 4425 975 
Q 4025 925 3312 825 
Q 2600 725 2275 675 
L 2000 850 
Q 2625 925 3325 1012 
Q 4025 1100 4200 1150 
L 4425 975 
z
M 4475 1375 
Q 3900 1325 3137 1225 
Q 2375 1125 2150 1075 
L 1875 1275 
Q 2275 1275 2950 1362 
Q 3625 1450 4200 1575 
L 4475 1375 
z
M 4375 3225 
Q 4625 3550 4725 3925 
Q 4275 3825 4150 3750 
L 3950 3875 
L 3825 3600 
L 3975 3600 
Q 4025 3525 4150 3412 
Q 4275 3300 4375 3225 
z
M 2275 2675 
L 2350 3000 
L 1650 2850 
L 1675 2550 
L 2275 2675 
z
" transform="scale(0.015625)"/>
      <path id="FangSong-7ed3" d="M 4700 1625 
L 4925 1850 
L 5225 1550 
L 5000 1400 
L 4900 325 
L 5225 50 
L 3250 -125 
Q 3275 -650 3237 -600 
Q 3200 -550 2925 -150 
Q 3000 -25 3000 200 
L 2975 1175 
Q 2975 1475 2875 1725 
L 2975 1775 
L 3200 1425 
L 4700 1625 
z
M 3875 4450 
Q 3875 5025 3700 5175 
L 3775 5250 
L 4225 4875 
Q 4075 4775 4100 4400 
L 4100 3550 
Q 5300 3725 5400 3800 
L 5775 3575 
Q 5525 3550 4100 3325 
L 4100 2425 
Q 5000 2575 5100 2625 
L 5450 2375 
Q 4900 2325 4100 2225 
Q 3300 2125 3125 2050 
L 2775 2300 
Q 3075 2300 3875 2400 
L 3875 3300 
Q 3100 3225 2950 3175 
L 2600 3375 
Q 3000 3400 3875 3525 
L 3875 4450 
z
M 1975 2850 
Q 1625 2775 1350 2725 
Q 1075 2675 900 2600 
L 650 2850 
L 1000 2975 
Q 1150 3225 1562 4012 
Q 1975 4800 1900 5075 
L 2000 5100 
L 2275 4575 
Q 2125 4575 1950 4262 
Q 1775 3950 1175 2925 
L 2050 3000 
Q 2200 3275 2237 3400 
Q 2275 3525 2275 3725 
L 2350 3750 
L 2600 3300 
Q 2525 3325 2325 3012 
Q 2125 2700 1425 1625 
L 2700 1925 
L 2725 1800 
Q 1300 1350 1125 1225 
L 850 1500 
L 1175 1625 
Q 1775 2475 1975 2850 
z
M 4775 1400 
L 3225 1225 
L 3250 75 
L 4650 225 
L 4775 1400 
z
M 2800 825 
Q 1075 150 975 50 
L 550 300 
Q 975 375 2775 925 
L 2800 825 
z
" transform="scale(0.015625)"/>
      <path id="FangSong-679c" d="M 4550 5050 
L 4850 4800 
L 4650 4600 
L 4475 3175 
L 4700 2950 
L 3225 2800 
L 3225 2200 
Q 5275 2375 5225 2425 
L 5550 2150 
Q 5225 2175 3375 2000 
Q 4150 1275 4450 987 
Q 4750 700 4900 600 
Q 5050 500 5925 475 
L 5925 350 
L 4750 200 
Q 4725 350 4350 750 
L 3225 1950 
L 3225 -400 
Q 3200 -700 3150 -575 
L 2875 -100 
Q 3025 -25 3000 325 
L 3000 1875 
Q 1875 525 525 -100 
L 475 0 
Q 1750 725 2750 1950 
Q 1150 1800 1075 1750 
L 750 2025 
Q 1125 2000 3000 2175 
L 3000 2775 
L 2025 2675 
Q 2050 2375 1975 2425 
L 1725 2725 
Q 1800 2800 1800 3150 
L 1775 4325 
Q 1750 4675 1700 5000 
L 1775 5025 
L 1950 4625 
L 4400 4850 
L 4550 5050 
z
M 3225 3900 
Q 3925 3975 3950 4025 
L 4225 3750 
Q 3825 3750 3225 3675 
L 3225 3025 
L 4250 3150 
L 4425 4600 
L 3225 4500 
L 3225 3900 
z
M 2025 2900 
L 3000 3000 
L 3000 3650 
Q 2350 3575 2250 3575 
L 2000 3750 
L 2025 2900 
z
M 2000 3800 
Q 2250 3800 3000 3900 
L 3000 4500 
L 2000 4400 
L 2000 3800 
z
" transform="scale(0.015625)"/>
      <path id="FangSong-53ef" d="M 1650 1500 
Q 1800 1700 1775 1975 
L 1750 2875 
Q 1700 3325 1600 3550 
L 1675 3625 
L 1950 3200 
L 3050 3350 
L 3175 3575 
L 3475 3325 
L 3300 3125 
L 3225 2000 
L 3475 1775 
L 2000 1625 
Q 2025 1000 1925 1150 
L 1650 1500 
z
M 4500 300 
Q 4475 -375 4275 -675 
Q 3850 -150 3200 400 
L 3250 475 
L 4175 -150 
Q 4300 200 4275 525 
L 4275 3725 
Q 4300 4300 4100 4450 
Q 1050 4150 850 4100 
L 525 4350 
Q 950 4325 3125 4575 
Q 5300 4825 5550 4925 
L 5925 4625 
Q 5575 4625 4275 4450 
L 4575 4175 
Q 4475 4000 4500 3650 
L 4500 300 
z
M 3050 3100 
L 1975 2950 
L 2000 1875 
L 2950 1975 
L 3050 3100 
z
" transform="scale(0.015625)"/>
      <path id="FangSong-89c6" d="M 4700 -425 
Q 4100 -425 4075 150 
L 4100 1525 
Q 4075 1850 4050 2150 
Q 3550 225 2075 -600 
L 2000 -500 
Q 2750 -25 3237 762 
Q 3725 1550 3862 2575 
Q 4000 3600 3850 3800 
L 3900 3850 
L 4325 3475 
Q 4225 3450 4200 3287 
Q 4175 3125 4150 2925 
Q 4125 2725 4050 2175 
L 4425 1875 
Q 4300 1775 4325 1350 
L 4300 225 
Q 4300 -125 4700 -200 
L 5250 -200 
Q 5650 -200 5662 12 
Q 5675 225 5700 1025 
L 5800 1025 
Q 5800 700 5837 312 
Q 5875 -75 6000 -300 
Q 5700 -425 5200 -425 
L 4700 -425 
z
M 2950 1800 
Q 3075 1950 3050 2225 
L 3050 4150 
Q 3075 4600 2975 4950 
L 3050 5000 
L 3275 4575 
L 4825 4725 
L 5000 4975 
L 5325 4675 
L 5125 4500 
Q 5050 1825 5025 1537 
Q 5000 1250 4925 1375 
L 4700 1800 
Q 4800 1825 4825 2087 
Q 4850 2350 4900 4500 
L 3275 4350 
L 3275 1725 
Q 3275 1275 3175 1350 
L 2950 1800 
z
M 1825 -450 
Q 1825 -650 1750 -525 
L 1500 -75 
Q 1625 0 1625 250 
L 1675 2375 
Q 1225 1825 425 1250 
L 375 1350 
Q 1400 2175 2150 3425 
Q 1075 3300 875 3225 
L 625 3525 
Q 1000 3500 2225 3675 
L 2375 3900 
L 2700 3600 
L 2475 3425 
Q 2250 3100 1850 2550 
Q 2250 2325 2650 2125 
Q 2625 1950 2575 1675 
Q 2325 1975 1900 2350 
L 1825 -450 
z
M 1325 5125 
Q 1825 4725 2100 4475 
Q 2050 4300 1925 4025 
Q 1775 4350 1275 5075 
L 1325 5125 
z
" transform="scale(0.015625)"/>
      <path id="FangSong-5316" d="M 3700 500 
Q 3700 25 4375 0 
L 5075 0 
Q 5450 0 5512 162 
Q 5575 325 5575 1350 
L 5700 1350 
Q 5700 1000 5737 562 
Q 5775 125 5925 -150 
Q 5625 -250 5075 -250 
L 4375 -250 
Q 3475 -250 3475 400 
L 3475 1950 
Q 2975 1550 2275 1200 
L 2225 1325 
Q 2900 1700 3475 2200 
L 3475 4275 
Q 3475 4875 3325 5125 
L 3375 5175 
L 3850 4725 
Q 3675 4650 3700 4225 
L 3700 2350 
Q 4225 2750 4675 3225 
Q 5125 3700 5075 3950 
L 5150 3950 
L 5325 3400 
Q 5275 3450 4775 2987 
Q 4275 2525 3700 2100 
L 3700 500 
z
M 2050 -300 
Q 2050 -700 1950 -550 
L 1700 -75 
Q 1850 -25 1825 300 
L 1850 3350 
Q 1400 2750 500 2000 
L 450 2100 
Q 1400 3050 2025 4000 
Q 2650 4950 2525 5150 
L 2600 5175 
L 2875 4650 
Q 2775 4700 2562 4400 
Q 2350 4100 2075 3675 
L 2050 -300 
z
" transform="scale(0.015625)"/>
     </defs>
     <use xlink:href="#FangSong-9884"/>
     <use xlink:href="#FangSong-8b66" x="100"/>
     <use xlink:href="#FangSong-7ed3" x="200"/>
     <use xlink:href="#FangSong-679c" x="300"/>
     <use xlink:href="#FangSong-53ef" x="400"/>
     <use xlink:href="#FangSong-89c6" x="500"/>
     <use xlink:href="#FangSong-5316" x="600"/>
    </g>
   </g>
   <g id="legend_1">
    <g id="patch_11">
     <path d="M 64.6 106.698563 
L 161.6 106.698563 
Q 163.6 106.698563 163.6 104.698563 
L 163.6 48.472 
Q 163.6 46.472 161.6 46.472 
L 64.6 46.472 
Q 62.6 46.472 62.6 48.472 
L 62.6 104.698563 
Q 62.6 106.698563 64.6 106.698563 
z
" style="fill: #ffffff; opacity: 0.8; stroke: #cccccc; stroke-linejoin: miter"/>
    </g>
    <g id="line2d_49">
     <path d="M 66.6 54.823563 
L 76.6 54.823563 
L 86.6 54.823563 
" style="fill: none; stroke: #0000ff; stroke-linecap: square"/>
    </g>
    <g id="text_22">
     <!-- 无砂堵风险IV -->
     <g transform="translate(94.6 58.323563)scale(0.1 -0.1)">
      <defs>
       <path id="FangSong-65e0" d="M 3600 325 
Q 3575 -150 4075 -175 
L 4700 -175 
Q 5400 -200 5425 50 
Q 5450 300 5450 1125 
L 5575 1125 
Q 5575 750 5650 350 
Q 5725 -50 5875 -250 
Q 5425 -400 4700 -400 
L 4050 -400 
Q 3325 -425 3375 400 
L 3425 2125 
Q 3425 2600 3325 2800 
L 3025 2775 
Q 2425 300 525 -600 
L 500 -500 
Q 2175 450 2775 2750 
Q 1175 2600 1100 2525 
L 775 2875 
Q 1325 2825 2825 2975 
Q 3000 4050 2975 4350 
Q 1825 4225 1700 4175 
L 1400 4450 
Q 1725 4425 3100 4587 
Q 4475 4750 4675 4800 
L 4975 4550 
Q 4600 4550 3050 4350 
L 3325 4050 
Q 3225 4075 3175 3775 
Q 3125 3475 3075 3000 
Q 5275 3200 5325 3250 
L 5675 2925 
Q 5450 2950 3400 2800 
L 3775 2450 
Q 3625 2425 3650 2050 
L 3600 325 
z
" transform="scale(0.015625)"/>
       <path id="FangSong-7802" d="M 1675 1125 
Q 1675 475 1600 550 
L 1350 900 
Q 1450 1050 1450 1325 
L 1425 2625 
Q 1075 2025 450 1425 
L 400 1550 
Q 1350 2675 1800 3925 
Q 1225 3850 1000 3775 
L 750 4050 
Q 1375 4100 2112 4200 
Q 2850 4300 3000 4375 
L 3250 4075 
Q 2875 4075 1875 3925 
L 2100 3700 
Q 2000 3650 1887 3437 
Q 1775 3225 1550 2850 
L 1650 2700 
L 2400 2800 
L 2525 3000 
L 2850 2725 
L 2650 2525 
L 2575 1500 
L 2750 1250 
L 1675 1125 
z
M 1800 -575 
Q 3525 225 4312 1237 
Q 5100 2250 5075 2650 
L 5150 2675 
L 5350 2150 
Q 5250 2150 4912 1637 
Q 4575 1125 3887 487 
Q 3200 -150 1850 -650 
L 1800 -575 
z
M 4325 1950 
Q 4350 1350 4250 1500 
L 3925 1900 
Q 4100 2075 4075 2325 
L 4100 4475 
Q 4100 4800 3925 5125 
L 3975 5200 
L 4475 4850 
Q 4325 4775 4350 4375 
L 4325 1950 
z
M 2325 1425 
L 2425 2550 
L 1650 2450 
L 1675 1350 
L 2325 1425 
z
M 2675 1625 
Q 3100 2400 3275 2950 
Q 3450 3500 3425 3775 
L 3500 3800 
L 3750 3300 
Q 3625 3175 3425 2725 
Q 3225 2275 2775 1550 
L 2675 1625 
z
M 5825 2350 
Q 5375 3000 4725 3775 
L 4800 3850 
Q 5475 3200 5900 2850 
Q 5900 2625 5825 2350 
z
" transform="scale(0.015625)"/>
       <path id="FangSong-5835" d="M 2650 1650 
Q 875 675 825 600 
L 400 800 
Q 650 850 1550 1275 
L 1575 2875 
Q 1050 2775 875 2675 
L 550 2975 
Q 825 2975 1575 3100 
L 1600 4225 
Q 1625 4775 1475 5025 
L 1525 5100 
L 1975 4675 
Q 1800 4675 1825 4200 
L 1800 3125 
Q 2300 3250 2375 3300 
L 2625 3025 
Q 2375 3025 1800 2900 
L 1775 1350 
L 2625 1750 
L 2650 1650 
z
M 3775 2725 
L 4075 2775 
Q 4350 3175 4650 3625 
Q 4350 3600 3775 3500 
L 3775 2725 
z
M 4600 -125 
Q 4675 125 4700 1675 
L 3275 1500 
L 3275 850 
Q 4075 950 4275 1050 
L 4525 750 
Q 4125 750 3275 625 
L 3300 -75 
Q 4250 -25 4400 75 
L 4600 -125 
z
M 3300 -325 
Q 3325 -675 3225 -675 
L 3000 -325 
Q 3075 -225 3075 75 
L 3050 1275 
Q 2325 600 1350 25 
L 1275 125 
Q 2225 750 3025 1575 
L 2975 1925 
L 3025 1975 
L 3200 1725 
Q 3575 2150 3875 2525 
Q 2525 2350 2350 2300 
L 2075 2550 
Q 2350 2525 3550 2725 
L 3550 3450 
Q 2975 3350 2875 3300 
L 2575 3550 
Q 2750 3525 3550 3675 
L 3550 4525 
Q 3550 4975 3400 5200 
L 3475 5275 
L 3900 4925 
Q 3750 4875 3775 4475 
L 3775 3725 
Q 4200 3800 4425 3900 
L 4725 3750 
Q 4925 4050 4975 4225 
Q 5025 4400 5025 4550 
L 5100 4575 
L 5325 4100 
Q 5200 4025 5050 3800 
Q 4800 3450 4375 2825 
Q 5550 2975 5700 3025 
L 6000 2800 
Q 5675 2775 4225 2600 
Q 3800 2075 3525 1750 
L 4650 1900 
L 4825 2125 
L 5100 1850 
L 4925 1700 
Q 4900 25 4837 -300 
Q 4775 -625 4725 -637 
Q 4675 -650 4600 -200 
L 3300 -325 
z
" transform="scale(0.015625)"/>
      </defs>
      <use xlink:href="#FangSong-65e0"/>
      <use xlink:href="#FangSong-7802" x="100"/>
      <use xlink:href="#FangSong-5835" x="200"/>
      <use xlink:href="#FangSong-98ce" x="300"/>
      <use xlink:href="#FangSong-9669" x="400"/>
      <use xlink:href="#FangSong-49" x="500"/>
      <use xlink:href="#FangSong-56" x="550"/>
     </g>
    </g>
    <g id="line2d_50">
     <path d="M 66.6 69.120438 
L 76.6 69.120438 
L 86.6 69.120438 
" style="fill: none; stroke: #008000; stroke-linecap: square"/>
    </g>
    <g id="text_23">
     <!-- 低砂堵风险III -->
     <g transform="translate(94.6 72.620438)scale(0.1 -0.1)">
      <defs>
       <path id="FangSong-4f4e" d="M 3950 2550 
Q 3200 2375 3100 2325 
L 2825 2600 
L 2800 400 
L 3825 1225 
L 3900 1150 
Q 2850 100 2650 -225 
L 2400 100 
Q 2600 200 2575 750 
L 2600 3600 
Q 2625 4125 2500 4550 
L 2600 4600 
L 2825 4075 
Q 4825 4725 4875 5000 
L 4900 5050 
L 5275 4750 
Q 5075 4650 4750 4525 
Q 4425 4400 4075 4275 
Q 4125 3525 4175 2825 
Q 5275 2975 5350 3075 
L 5675 2800 
Q 5375 2800 4200 2600 
Q 4375 1375 4750 775 
Q 5125 175 5575 -25 
L 5675 1300 
L 5775 1300 
Q 5750 0 5875 -625 
Q 5025 -175 4587 550 
Q 4150 1275 3950 2550 
z
M 2050 5250 
L 2325 4725 
Q 2225 4725 2087 4525 
Q 1950 4325 1675 3850 
L 1625 -150 
Q 1625 -675 1550 -600 
L 1275 -175 
Q 1400 -25 1400 375 
L 1450 3475 
Q 1025 2875 500 2300 
L 425 2400 
Q 1125 3300 1587 4162 
Q 2050 5025 1975 5225 
L 2050 5250 
z
M 2825 2625 
Q 3300 2650 3925 2775 
L 3825 4175 
Q 3375 4050 2825 3925 
L 2825 2625 
z
M 4350 50 
Q 4325 -100 4250 -400 
Q 3950 50 3575 525 
L 3625 600 
Q 4100 275 4350 50 
z
" transform="scale(0.015625)"/>
      </defs>
      <use xlink:href="#FangSong-4f4e"/>
      <use xlink:href="#FangSong-7802" x="100"/>
      <use xlink:href="#FangSong-5835" x="200"/>
      <use xlink:href="#FangSong-98ce" x="300"/>
      <use xlink:href="#FangSong-9669" x="400"/>
      <use xlink:href="#FangSong-49" x="500"/>
      <use xlink:href="#FangSong-49" x="550"/>
      <use xlink:href="#FangSong-49" x="600"/>
     </g>
    </g>
    <g id="line2d_51">
     <path d="M 66.6 83.456375 
L 76.6 83.456375 
L 86.6 83.456375 
" style="fill: none; stroke: #bfbf00; stroke-linecap: square"/>
    </g>
    <g id="text_24">
     <!-- 中砂堵风险II -->
     <g transform="translate(94.6 86.956375)scale(0.1 -0.1)">
      <defs>
       <path id="FangSong-4e2d" d="M 1625 1800 
Q 1650 1375 1525 1475 
L 1325 1800 
Q 1400 1925 1400 2125 
L 1375 3300 
Q 1350 3600 1250 3925 
L 1375 3950 
L 1575 3450 
L 3100 3575 
L 3100 4450 
Q 3100 4875 2900 5125 
L 2975 5200 
L 3450 4825 
Q 3300 4750 3325 4425 
L 3325 3600 
L 4925 3750 
L 5075 4025 
L 5375 3750 
L 5225 3575 
L 5025 2300 
L 5325 2075 
L 3325 1925 
L 3325 -275 
Q 3300 -700 3225 -550 
L 2950 -175 
Q 3100 -50 3100 300 
L 3100 1900 
L 1625 1800 
z
M 4950 3525 
L 3325 3375 
L 3325 2150 
L 4800 2275 
L 4950 3525 
z
M 1625 2025 
L 3100 2125 
L 3100 3350 
L 1600 3225 
L 1625 2025 
z
" transform="scale(0.015625)"/>
      </defs>
      <use xlink:href="#FangSong-4e2d"/>
      <use xlink:href="#FangSong-7802" x="100"/>
      <use xlink:href="#FangSong-5835" x="200"/>
      <use xlink:href="#FangSong-98ce" x="300"/>
      <use xlink:href="#FangSong-9669" x="400"/>
      <use xlink:href="#FangSong-49" x="500"/>
      <use xlink:href="#FangSong-49" x="550"/>
     </g>
    </g>
    <g id="line2d_52">
     <path d="M 66.6 97.75325 
L 76.6 97.75325 
L 86.6 97.75325 
" style="fill: none; stroke: #ff0000; stroke-linecap: square"/>
    </g>
    <g id="text_25">
     <!-- 高砂堵风险I -->
     <g transform="translate(94.6 101.25325)scale(0.1 -0.1)">
      <defs>
       <path id="FangSong-9ad8" d="M 4075 275 
L 4700 -150 
Q 4875 300 5075 2175 
L 1450 1850 
L 1500 -75 
Q 1525 -600 1425 -500 
L 1150 -125 
Q 1250 25 1225 275 
L 1200 1775 
Q 1200 2125 1100 2475 
L 1200 2525 
L 1450 2100 
L 5050 2400 
L 5225 2650 
L 5500 2375 
L 5325 2200 
Q 5050 -175 4775 -625 
Q 4450 -225 4025 200 
L 4075 275 
z
M 4425 2775 
L 2375 2600 
Q 2400 2275 2300 2325 
L 2050 2625 
Q 2125 2775 2125 3125 
Q 2125 3475 2050 3800 
L 2125 3825 
L 2350 3550 
L 4050 3725 
L 4150 3900 
L 4450 3700 
L 4300 3525 
L 4200 2975 
L 4425 2775 
z
M 2525 475 
Q 2550 50 2450 150 
L 2225 425 
Q 2300 600 2300 975 
Q 2300 1350 2200 1725 
L 2275 1775 
L 2475 1475 
L 3775 1625 
L 3925 1800 
L 4175 1550 
L 4025 1400 
L 3950 825 
L 4100 600 
L 2525 475 
z
M 2825 5275 
Q 3275 4850 3500 4675 
Q 3450 4525 3300 4300 
Q 5450 4500 5550 4550 
L 5875 4300 
Q 5375 4250 3250 4075 
Q 1125 3900 975 3875 
L 625 4150 
Q 1175 4150 3275 4300 
Q 3100 4725 2750 5200 
L 2825 5275 
z
M 3975 2950 
L 4050 3475 
L 2375 3300 
L 2375 2800 
L 3975 2950 
z
M 2500 1250 
L 2525 725 
L 3700 825 
L 3775 1375 
L 2500 1250 
z
" transform="scale(0.015625)"/>
      </defs>
      <use xlink:href="#FangSong-9ad8"/>
      <use xlink:href="#FangSong-7802" x="100"/>
      <use xlink:href="#FangSong-5835" x="200"/>
      <use xlink:href="#FangSong-98ce" x="300"/>
      <use xlink:href="#FangSong-9669" x="400"/>
      <use xlink:href="#FangSong-49" x="500"/>
     </g>
    </g>
   </g>
  </g>
 </g>
 <defs>
  <clipPath id="p96609b599f">
   <rect x="57.6" y="41.472" width="357.12" height="266.112"/>
  </clipPath>
 </defs>
</svg>
