<?xml version="1.0" encoding="utf-8" standalone="no"?>
<!DOCTYPE svg PUBLIC "-//W3C//DTD SVG 1.1//EN"
  "http://www.w3.org/Graphics/SVG/1.1/DTD/svg11.dtd">
<svg xmlns:xlink="http://www.w3.org/1999/xlink" width="460.8pt" height="345.6pt" viewBox="0 0 460.8 345.6" xmlns="http://www.w3.org/2000/svg" version="1.1">
 <metadata>
  <rdf:RDF xmlns:dc="http://purl.org/dc/elements/1.1/" xmlns:cc="http://creativecommons.org/ns#" xmlns:rdf="http://www.w3.org/1999/02/22-rdf-syntax-ns#">
   <cc:Work>
    <dc:type rdf:resource="http://purl.org/dc/dcmitype/StillImage"/>
    <dc:date>2022-07-20T19:19:48.218258</dc:date>
    <dc:format>image/svg+xml</dc:format>
    <dc:creator>
     <cc:Agent>
      <dc:title>Matplotlib v3.5.1, https://matplotlib.org/</dc:title>
     </cc:Agent>
    </dc:creator>
   </cc:Work>
  </rdf:RDF>
 </metadata>
 <defs>
  <style type="text/css">*{stroke-linejoin: round; stroke-linecap: butt}</style>
 </defs>
 <g id="figure_1">
  <g id="patch_1">
   <path d="M 0 345.6 
L 460.8 345.6 
L 460.8 0 
L 0 0 
z
" style="fill: #ffffff"/>
  </g>
  <g id="axes_1">
   <g id="patch_2">
    <path d="M 57.6 307.584 
L 414.72 307.584 
L 414.72 41.472 
L 57.6 41.472 
z
" style="fill: #ffffff"/>
   </g>
   <g id="matplotlib.axis_1">
    <g id="xtick_1">
     <g id="line2d_1">
      <defs>
       <path id="ma35cba79c0" d="M 0 0 
L 0 3.5 
" style="stroke: #000000; stroke-width: 0.8"/>
      </defs>
      <g>
       <use xlink:href="#ma35cba79c0" x="57.6" y="307.584" style="stroke: #000000; stroke-width: 0.8"/>
      </g>
     </g>
     <g id="text_1">
      <!-- 0.0 -->
      <g transform="translate(48.6 322.974625)scale(0.12 -0.12)">
       <defs>
        <path id="FangSong-30" d="M 1575 4125 
Q 1225 4125 987 3587 
Q 750 3050 750 2150 
Q 750 1200 987 675 
Q 1225 150 1575 150 
Q 1950 150 2162 675 
Q 2375 1200 2375 2150 
Q 2375 3050 2175 3587 
Q 1975 4125 1575 4125 
z
M 1575 -50 
Q 1025 -50 650 525 
Q 275 1100 275 2150 
Q 275 3125 637 3725 
Q 1000 4325 1575 4325 
Q 2125 4325 2487 3750 
Q 2850 3175 2850 2150 
Q 2850 1125 2487 537 
Q 2125 -50 1575 -50 
z
" transform="scale(0.015625)"/>
        <path id="FangSong-2e" d="M 1125 275 
Q 1125 125 1025 25 
Q 925 -75 775 -75 
Q 625 -75 525 25 
Q 425 125 425 275 
Q 425 425 525 525 
Q 625 625 775 625 
Q 925 625 1025 525 
Q 1125 425 1125 275 
z
" transform="scale(0.015625)"/>
       </defs>
       <use xlink:href="#FangSong-30"/>
       <use xlink:href="#FangSong-2e" x="50"/>
       <use xlink:href="#FangSong-30" x="100"/>
      </g>
     </g>
    </g>
    <g id="xtick_2">
     <g id="line2d_2">
      <g>
       <use xlink:href="#ma35cba79c0" x="102.24" y="307.584" style="stroke: #000000; stroke-width: 0.8"/>
      </g>
     </g>
     <g id="text_2">
      <!-- 2.5 -->
      <g transform="translate(93.24 322.974625)scale(0.12 -0.12)">
       <defs>
        <path id="FangSong-32" d="M 2300 3225 
Q 2300 3675 2100 3912 
Q 1900 4150 1500 4150 
Q 1200 4150 987 3987 
Q 775 3825 775 3575 
Q 775 3425 862 3325 
Q 950 3225 950 3125 
Q 950 3000 887 2937 
Q 825 2875 700 2875 
Q 550 2875 462 2962 
Q 375 3050 375 3250 
Q 375 3775 750 4050 
Q 1125 4325 1550 4325 
Q 2150 4325 2437 4025 
Q 2725 3725 2725 3275 
Q 2725 2975 2587 2675 
Q 2450 2375 2150 2100 
Q 1425 1400 1037 962 
Q 650 525 575 375 
L 2050 375 
Q 2275 375 2425 550 
Q 2575 725 2625 1075 
L 2775 1075 
L 2625 0 
L 300 0 
L 300 325 
Q 425 550 712 900 
Q 1000 1250 1475 1725 
Q 1900 2150 2100 2525 
Q 2300 2900 2300 3225 
z
" transform="scale(0.015625)"/>
        <path id="FangSong-35" d="M 1700 2750 
Q 2175 2750 2475 2387 
Q 2775 2025 2775 1425 
Q 2775 750 2462 350 
Q 2150 -50 1500 -50 
Q 1050 -50 700 212 
Q 350 475 350 850 
Q 350 1000 437 1112 
Q 525 1225 675 1225 
Q 825 1225 875 1125 
Q 925 1025 925 950 
Q 925 800 850 712 
Q 775 625 775 525 
Q 775 325 1012 225 
Q 1250 125 1525 125 
Q 1925 125 2137 450 
Q 2350 775 2350 1375 
Q 2350 1875 2162 2187 
Q 1975 2500 1600 2500 
Q 1325 2500 1125 2400 
Q 925 2300 750 1975 
L 525 2000 
L 650 4275 
L 2700 4275 
L 2625 3900 
L 825 3900 
L 725 2250 
Q 975 2600 1212 2675 
Q 1450 2750 1700 2750 
z
" transform="scale(0.015625)"/>
       </defs>
       <use xlink:href="#FangSong-32"/>
       <use xlink:href="#FangSong-2e" x="50"/>
       <use xlink:href="#FangSong-35" x="100"/>
      </g>
     </g>
    </g>
    <g id="xtick_3">
     <g id="line2d_3">
      <g>
       <use xlink:href="#ma35cba79c0" x="146.88" y="307.584" style="stroke: #000000; stroke-width: 0.8"/>
      </g>
     </g>
     <g id="text_3">
      <!-- 5.0 -->
      <g transform="translate(137.88 322.974625)scale(0.12 -0.12)">
       <use xlink:href="#FangSong-35"/>
       <use xlink:href="#FangSong-2e" x="50"/>
       <use xlink:href="#FangSong-30" x="100"/>
      </g>
     </g>
    </g>
    <g id="xtick_4">
     <g id="line2d_4">
      <g>
       <use xlink:href="#ma35cba79c0" x="191.52" y="307.584" style="stroke: #000000; stroke-width: 0.8"/>
      </g>
     </g>
     <g id="text_4">
      <!-- 7.5 -->
      <g transform="translate(182.52 322.974625)scale(0.12 -0.12)">
       <defs>
        <path id="FangSong-37" d="M 2800 4100 
Q 2275 3250 1962 2437 
Q 1650 1625 1650 1025 
Q 1650 925 1662 737 
Q 1675 550 1675 300 
Q 1675 100 1612 25 
Q 1550 -50 1400 -50 
Q 1275 -50 1187 37 
Q 1100 125 1100 350 
Q 1100 825 1312 1525 
Q 1525 2225 2450 3900 
L 1200 3900 
Q 925 3900 762 3725 
Q 600 3550 525 3200 
L 375 3225 
L 550 4275 
L 2800 4275 
L 2800 4100 
z
" transform="scale(0.015625)"/>
       </defs>
       <use xlink:href="#FangSong-37"/>
       <use xlink:href="#FangSong-2e" x="50"/>
       <use xlink:href="#FangSong-35" x="100"/>
      </g>
     </g>
    </g>
    <g id="xtick_5">
     <g id="line2d_5">
      <g>
       <use xlink:href="#ma35cba79c0" x="236.16" y="307.584" style="stroke: #000000; stroke-width: 0.8"/>
      </g>
     </g>
     <g id="text_5">
      <!-- 10.0 -->
      <g transform="translate(224.16 322.974625)scale(0.12 -0.12)">
       <defs>
        <path id="FangSong-31" d="M 1800 4350 
L 1800 550 
Q 1800 350 1925 250 
Q 2050 150 2275 150 
L 2525 150 
L 2525 0 
L 700 0 
L 700 150 
L 925 150 
Q 1175 150 1287 250 
Q 1400 350 1400 550 
L 1400 3575 
Q 1400 3675 1337 3737 
Q 1275 3800 1150 3800 
L 700 3800 
L 700 3950 
L 925 3950 
Q 1225 3950 1412 4050 
Q 1600 4150 1700 4350 
L 1800 4350 
z
" transform="scale(0.015625)"/>
       </defs>
       <use xlink:href="#FangSong-31"/>
       <use xlink:href="#FangSong-30" x="50"/>
       <use xlink:href="#FangSong-2e" x="100"/>
       <use xlink:href="#FangSong-30" x="150"/>
      </g>
     </g>
    </g>
    <g id="xtick_6">
     <g id="line2d_6">
      <g>
       <use xlink:href="#ma35cba79c0" x="280.8" y="307.584" style="stroke: #000000; stroke-width: 0.8"/>
      </g>
     </g>
     <g id="text_6">
      <!-- 12.5 -->
      <g transform="translate(268.8 322.974625)scale(0.12 -0.12)">
       <use xlink:href="#FangSong-31"/>
       <use xlink:href="#FangSong-32" x="50"/>
       <use xlink:href="#FangSong-2e" x="100"/>
       <use xlink:href="#FangSong-35" x="150"/>
      </g>
     </g>
    </g>
    <g id="xtick_7">
     <g id="line2d_7">
      <g>
       <use xlink:href="#ma35cba79c0" x="325.44" y="307.584" style="stroke: #000000; stroke-width: 0.8"/>
      </g>
     </g>
     <g id="text_7">
      <!-- 15.0 -->
      <g transform="translate(313.44 322.974625)scale(0.12 -0.12)">
       <use xlink:href="#FangSong-31"/>
       <use xlink:href="#FangSong-35" x="50"/>
       <use xlink:href="#FangSong-2e" x="100"/>
       <use xlink:href="#FangSong-30" x="150"/>
      </g>
     </g>
    </g>
    <g id="xtick_8">
     <g id="line2d_8">
      <g>
       <use xlink:href="#ma35cba79c0" x="370.08" y="307.584" style="stroke: #000000; stroke-width: 0.8"/>
      </g>
     </g>
     <g id="text_8">
      <!-- 17.5 -->
      <g transform="translate(358.08 322.974625)scale(0.12 -0.12)">
       <use xlink:href="#FangSong-31"/>
       <use xlink:href="#FangSong-37" x="50"/>
       <use xlink:href="#FangSong-2e" x="100"/>
       <use xlink:href="#FangSong-35" x="150"/>
      </g>
     </g>
    </g>
    <g id="xtick_9">
     <g id="line2d_9">
      <g>
       <use xlink:href="#ma35cba79c0" x="414.72" y="307.584" style="stroke: #000000; stroke-width: 0.8"/>
      </g>
     </g>
     <g id="text_9">
      <!-- 20.0 -->
      <g transform="translate(402.72 322.974625)scale(0.12 -0.12)">
       <use xlink:href="#FangSong-32"/>
       <use xlink:href="#FangSong-30" x="50"/>
       <use xlink:href="#FangSong-2e" x="100"/>
       <use xlink:href="#FangSong-30" x="150"/>
      </g>
     </g>
    </g>
    <g id="text_10">
     <!-- flow(m3/min) -->
     <g transform="translate(191.16 339.900406)scale(0.15 -0.15)">
      <defs>
       <path id="FangSong-66" d="M 1100 3225 
Q 1100 3750 1425 4012 
Q 1750 4275 2150 4275 
Q 2575 4275 2787 4125 
Q 3000 3975 3000 3775 
Q 3000 3675 2950 3600 
Q 2900 3525 2750 3525 
Q 2650 3525 2587 3575 
Q 2525 3625 2525 3750 
Q 2525 3775 2537 3825 
Q 2550 3875 2550 3900 
Q 2550 4000 2475 4062 
Q 2400 4125 2125 4125 
Q 1825 4125 1637 3937 
Q 1450 3750 1450 3300 
L 1450 2800 
L 2500 2800 
L 2500 2650 
L 1450 2650 
L 1450 350 
Q 1450 250 1512 200 
Q 1575 150 1675 150 
L 2275 150 
L 2275 0 
L 450 0 
L 450 150 
L 875 150 
Q 1000 150 1050 200 
Q 1100 250 1100 350 
L 1100 2650 
L 325 2650 
L 325 2800 
L 1100 2800 
L 1100 3225 
z
" transform="scale(0.015625)"/>
       <path id="FangSong-6c" d="M 900 4275 
Q 1125 4275 1325 4325 
Q 1525 4375 1700 4475 
L 1750 4475 
L 1750 350 
Q 1750 250 1812 200 
Q 1875 150 1975 150 
L 2550 150 
L 2550 0 
L 600 0 
L 600 150 
L 1175 150 
Q 1300 150 1350 200 
Q 1400 250 1400 350 
L 1400 3925 
Q 1400 4025 1350 4075 
Q 1300 4125 1175 4125 
L 625 4125 
L 625 4275 
L 900 4275 
z
" transform="scale(0.015625)"/>
       <path id="FangSong-6f" d="M 2875 1400 
Q 2875 775 2500 362 
Q 2125 -50 1575 -50 
Q 1000 -50 637 375 
Q 275 800 275 1400 
Q 275 1950 637 2400 
Q 1000 2850 1575 2850 
Q 2175 2850 2525 2400 
Q 2875 1950 2875 1400 
z
M 675 1375 
Q 675 725 937 412 
Q 1200 100 1575 100 
Q 2000 100 2237 437 
Q 2475 775 2475 1375 
Q 2475 2025 2212 2362 
Q 1950 2700 1575 2700 
Q 1225 2700 950 2362 
Q 675 2025 675 1375 
z
" transform="scale(0.015625)"/>
       <path id="FangSong-77" d="M 2300 2800 
L 3150 2800 
L 3150 2650 
L 3050 2650 
Q 2950 2650 2875 2575 
Q 2800 2500 2750 2325 
L 2150 -25 
L 2000 -25 
L 1550 1875 
L 1075 -25 
L 925 -25 
L 350 2275 
Q 325 2450 250 2550 
Q 175 2650 100 2650 
L 0 2650 
L 0 2800 
L 900 2800 
L 900 2650 
L 800 2650 
Q 700 2650 675 2562 
Q 650 2475 675 2325 
L 1050 700 
L 1100 700 
L 1475 2200 
Q 1450 2425 1375 2537 
Q 1300 2650 1200 2650 
L 1125 2650 
L 1125 2800 
L 1975 2800 
L 1975 2650 
L 1900 2650 
Q 1800 2650 1775 2562 
Q 1750 2475 1775 2325 
L 2150 700 
L 2175 700 
L 2600 2450 
Q 2625 2550 2575 2600 
Q 2525 2650 2425 2650 
L 2300 2650 
L 2300 2800 
z
" transform="scale(0.015625)"/>
       <path id="FangSong-28" d="M 2875 4925 
Q 2300 4325 2012 3637 
Q 1725 2950 1725 2200 
Q 1725 1425 2012 750 
Q 2300 75 2875 -525 
L 2750 -650 
Q 2050 -25 1700 687 
Q 1350 1400 1350 2200 
Q 1350 2975 1700 3687 
Q 2050 4400 2750 5050 
L 2875 4925 
z
" transform="scale(0.015625)"/>
       <path id="FangSong-6d" d="M 150 2800 
Q 275 2800 400 2825 
Q 525 2850 600 2900 
L 650 2900 
L 650 2475 
Q 775 2675 925 2762 
Q 1075 2850 1250 2850 
Q 1475 2850 1600 2762 
Q 1725 2675 1750 2475 
Q 1875 2675 2037 2762 
Q 2200 2850 2375 2850 
Q 2675 2850 2787 2675 
Q 2900 2500 2900 2225 
L 2900 325 
Q 2900 225 2950 187 
Q 3000 150 3100 150 
L 3150 150 
L 3150 0 
L 2300 0 
L 2300 150 
L 2350 150 
Q 2450 150 2500 187 
Q 2550 225 2550 325 
L 2550 2200 
Q 2550 2475 2487 2562 
Q 2425 2650 2300 2650 
Q 2125 2650 1987 2525 
Q 1850 2400 1775 2175 
L 1775 325 
Q 1775 225 1825 187 
Q 1875 150 1975 150 
L 2025 150 
L 2025 0 
L 1175 0 
L 1175 150 
L 1225 150 
Q 1325 150 1375 187 
Q 1425 225 1425 325 
L 1425 2200 
Q 1425 2425 1375 2537 
Q 1325 2650 1175 2650 
Q 1000 2650 862 2525 
Q 725 2400 650 2150 
L 650 325 
Q 650 225 700 187 
Q 750 150 850 150 
L 900 150 
L 900 0 
L 50 0 
L 50 150 
L 100 150 
Q 200 150 250 187 
Q 300 225 300 325 
L 300 2500 
Q 300 2575 275 2612 
Q 250 2650 175 2650 
L 75 2650 
L 75 2800 
L 150 2800 
z
" transform="scale(0.015625)"/>
       <path id="FangSong-33" d="M 2775 1150 
Q 2775 675 2425 312 
Q 2075 -50 1450 -50 
Q 1000 -50 675 200 
Q 350 450 350 775 
Q 350 925 450 1037 
Q 550 1150 650 1150 
Q 800 1150 862 1037 
Q 925 925 925 850 
Q 925 725 875 637 
Q 825 550 825 475 
Q 825 325 1012 225 
Q 1200 125 1425 125 
Q 1875 125 2100 387 
Q 2325 650 2325 1200 
Q 2325 1650 2087 1925 
Q 1850 2200 1200 2200 
L 1200 2375 
Q 1700 2375 1937 2612 
Q 2175 2850 2175 3275 
Q 2175 3625 1987 3887 
Q 1800 4150 1400 4150 
Q 1225 4150 1025 4062 
Q 825 3975 825 3775 
Q 825 3575 875 3525 
Q 925 3475 925 3400 
Q 925 3275 875 3200 
Q 825 3125 700 3125 
Q 600 3125 512 3200 
Q 425 3275 425 3475 
Q 425 3850 750 4087 
Q 1075 4325 1500 4325 
Q 2000 4325 2300 4012 
Q 2600 3700 2600 3350 
Q 2600 2975 2412 2712 
Q 2225 2450 1825 2325 
Q 2375 2125 2575 1800 
Q 2775 1475 2775 1150 
z
" transform="scale(0.015625)"/>
       <path id="FangSong-2f" d="M 375 -575 
L 200 -475 
L 2750 4875 
L 2925 4775 
L 375 -575 
z
" transform="scale(0.015625)"/>
       <path id="FangSong-69" d="M 1400 2425 
Q 1400 2525 1350 2587 
Q 1300 2650 1175 2650 
L 650 2650 
L 650 2800 
L 900 2800 
Q 1125 2800 1325 2837 
Q 1525 2875 1700 2975 
L 1750 2975 
L 1750 350 
Q 1750 250 1812 200 
Q 1875 150 1975 150 
L 2500 150 
L 2500 0 
L 650 0 
L 650 150 
L 1175 150 
Q 1300 150 1350 200 
Q 1400 250 1400 350 
L 1400 2425 
z
M 1925 3975 
Q 1925 3825 1825 3725 
Q 1725 3625 1575 3625 
Q 1425 3625 1325 3725 
Q 1225 3825 1225 3975 
Q 1225 4125 1325 4225 
Q 1425 4325 1575 4325 
Q 1725 4325 1825 4225 
Q 1925 4125 1925 3975 
z
" transform="scale(0.015625)"/>
       <path id="FangSong-6e" d="M 175 0 
L 175 150 
L 300 150 
Q 425 150 475 200 
Q 525 250 525 350 
L 525 2500 
Q 525 2575 500 2612 
Q 475 2650 400 2650 
L 200 2650 
L 200 2800 
L 375 2800 
Q 500 2800 612 2825 
Q 725 2850 825 2925 
L 875 2925 
L 875 2350 
Q 1100 2600 1325 2725 
Q 1550 2850 1800 2850 
Q 2225 2850 2425 2625 
Q 2625 2400 2625 1950 
L 2625 350 
Q 2625 250 2687 200 
Q 2750 150 2850 150 
L 2975 150 
L 2975 0 
L 1925 0 
L 1925 150 
L 2050 150 
Q 2175 150 2225 200 
Q 2275 250 2275 350 
L 2275 2025 
Q 2275 2325 2150 2487 
Q 2025 2650 1775 2650 
Q 1550 2650 1312 2500 
Q 1075 2350 875 2075 
L 875 350 
Q 875 250 937 200 
Q 1000 150 1100 150 
L 1225 150 
L 1225 0 
L 175 0 
z
" transform="scale(0.015625)"/>
       <path id="FangSong-29" d="M 250 4925 
L 375 5050 
Q 1075 4400 1425 3687 
Q 1775 2975 1775 2200 
Q 1775 1400 1425 687 
Q 1075 -25 375 -650 
L 250 -525 
Q 825 75 1112 750 
Q 1400 1425 1400 2200 
Q 1400 2950 1112 3637 
Q 825 4325 250 4925 
z
" transform="scale(0.015625)"/>
      </defs>
      <use xlink:href="#FangSong-66"/>
      <use xlink:href="#FangSong-6c" x="50"/>
      <use xlink:href="#FangSong-6f" x="100"/>
      <use xlink:href="#FangSong-77" x="150"/>
      <use xlink:href="#FangSong-28" x="200"/>
      <use xlink:href="#FangSong-6d" x="250"/>
      <use xlink:href="#FangSong-33" x="300"/>
      <use xlink:href="#FangSong-2f" x="350"/>
      <use xlink:href="#FangSong-6d" x="400"/>
      <use xlink:href="#FangSong-69" x="450"/>
      <use xlink:href="#FangSong-6e" x="500"/>
      <use xlink:href="#FangSong-29" x="550"/>
     </g>
    </g>
   </g>
   <g id="matplotlib.axis_2">
    <g id="ytick_1">
     <g id="line2d_10">
      <defs>
       <path id="meb0ee55307" d="M 0 0 
L -3.5 0 
" style="stroke: #000000; stroke-width: 0.8"/>
      </defs>
      <g>
       <use xlink:href="#meb0ee55307" x="57.6" y="307.584" style="stroke: #000000; stroke-width: 0.8"/>
      </g>
     </g>
     <g id="text_11">
      <!-- 0 -->
      <g transform="translate(44.6 311.779312)scale(0.12 -0.12)">
       <use xlink:href="#FangSong-30"/>
      </g>
     </g>
    </g>
    <g id="ytick_2">
     <g id="line2d_11">
      <g>
       <use xlink:href="#meb0ee55307" x="57.6" y="254.3616" style="stroke: #000000; stroke-width: 0.8"/>
      </g>
     </g>
     <g id="text_12">
      <!-- 10 -->
      <g transform="translate(38.6 258.556912)scale(0.12 -0.12)">
       <use xlink:href="#FangSong-31"/>
       <use xlink:href="#FangSong-30" x="50"/>
      </g>
     </g>
    </g>
    <g id="ytick_3">
     <g id="line2d_12">
      <g>
       <use xlink:href="#meb0ee55307" x="57.6" y="201.1392" style="stroke: #000000; stroke-width: 0.8"/>
      </g>
     </g>
     <g id="text_13">
      <!-- 20 -->
      <g transform="translate(38.6 205.334512)scale(0.12 -0.12)">
       <use xlink:href="#FangSong-32"/>
       <use xlink:href="#FangSong-30" x="50"/>
      </g>
     </g>
    </g>
    <g id="ytick_4">
     <g id="line2d_13">
      <g>
       <use xlink:href="#meb0ee55307" x="57.6" y="147.9168" style="stroke: #000000; stroke-width: 0.8"/>
      </g>
     </g>
     <g id="text_14">
      <!-- 30 -->
      <g transform="translate(38.6 152.112112)scale(0.12 -0.12)">
       <use xlink:href="#FangSong-33"/>
       <use xlink:href="#FangSong-30" x="50"/>
      </g>
     </g>
    </g>
    <g id="ytick_5">
     <g id="line2d_14">
      <g>
       <use xlink:href="#meb0ee55307" x="57.6" y="94.6944" style="stroke: #000000; stroke-width: 0.8"/>
      </g>
     </g>
     <g id="text_15">
      <!-- 40 -->
      <g transform="translate(38.6 98.889712)scale(0.12 -0.12)">
       <defs>
        <path id="FangSong-34" d="M 2275 475 
Q 2275 300 2375 225 
Q 2475 150 2650 150 
L 2875 150 
L 2875 0 
L 1225 0 
L 1225 150 
L 1500 150 
Q 1700 150 1787 225 
Q 1875 300 1875 475 
L 1875 1300 
L 200 1300 
L 200 1425 
L 2025 4325 
L 2275 4325 
L 2275 1450 
L 2950 1450 
L 2950 1300 
L 2275 1300 
L 2275 475 
z
M 1850 3700 
L 425 1450 
L 1875 1450 
L 1875 3700 
L 1850 3700 
z
" transform="scale(0.015625)"/>
       </defs>
       <use xlink:href="#FangSong-34"/>
       <use xlink:href="#FangSong-30" x="50"/>
      </g>
     </g>
    </g>
    <g id="ytick_6">
     <g id="line2d_15">
      <g>
       <use xlink:href="#meb0ee55307" x="57.6" y="41.472" style="stroke: #000000; stroke-width: 0.8"/>
      </g>
     </g>
     <g id="text_16">
      <!-- 50 -->
      <g transform="translate(38.6 45.667313)scale(0.12 -0.12)">
       <use xlink:href="#FangSong-35"/>
       <use xlink:href="#FangSong-30" x="50"/>
      </g>
     </g>
    </g>
    <g id="text_17">
     <!-- P_fperf(MPa) -->
     <g transform="translate(32.432031 219.528)rotate(-90)scale(0.15 -0.15)">
      <defs>
       <path id="FangSong-50" d="M 925 2000 
L 925 350 
Q 925 250 987 200 
Q 1050 150 1150 150 
L 1325 150 
L 1325 0 
L 125 0 
L 125 150 
L 300 150 
Q 425 150 475 200 
Q 525 250 525 350 
L 525 3925 
Q 525 4025 475 4075 
Q 425 4125 300 4125 
L 150 4125 
L 150 4275 
L 1625 4275 
Q 2250 4275 2587 3962 
Q 2925 3650 2925 3175 
Q 2925 2600 2562 2300 
Q 2200 2000 1700 2000 
L 925 2000 
z
M 1550 2150 
Q 1925 2150 2212 2375 
Q 2500 2600 2500 3150 
Q 2500 3650 2262 3887 
Q 2025 4125 1500 4125 
L 1150 4125 
Q 1050 4125 987 4075 
Q 925 4025 925 3925 
L 925 2150 
L 1550 2150 
z
" transform="scale(0.015625)"/>
       <path id="FangSong-5f" d="M 0 -850 
L 0 -700 
L 3150 -700 
L 3150 -850 
L 0 -850 
z
" transform="scale(0.015625)"/>
       <path id="FangSong-70" d="M 1125 -775 
L 1300 -775 
L 1300 -925 
L 150 -925 
L 150 -775 
L 300 -775 
Q 425 -775 475 -725 
Q 525 -675 525 -550 
L 525 2400 
Q 525 2500 475 2562 
Q 425 2625 300 2625 
L 150 2625 
L 150 2775 
L 375 2775 
Q 500 2775 612 2800 
Q 725 2825 825 2900 
L 875 2900 
L 875 2325 
Q 1050 2575 1262 2700 
Q 1475 2825 1725 2825 
Q 2225 2825 2550 2487 
Q 2875 2150 2875 1425 
Q 2875 725 2525 350 
Q 2175 -25 1700 -25 
Q 1425 -25 1237 62 
Q 1050 150 875 325 
L 875 -550 
Q 875 -675 950 -725 
Q 1025 -775 1125 -775 
z
M 875 650 
Q 1000 400 1187 275 
Q 1375 150 1625 150 
Q 1975 150 2225 462 
Q 2475 775 2475 1425 
Q 2475 2025 2287 2325 
Q 2100 2625 1725 2625 
Q 1500 2625 1275 2487 
Q 1050 2350 875 2050 
L 875 650 
z
" transform="scale(0.015625)"/>
       <path id="FangSong-65" d="M 2375 1550 
Q 2400 2100 2187 2387 
Q 1975 2675 1625 2675 
Q 1250 2675 1012 2375 
Q 775 2075 775 1550 
L 2375 1550 
z
M 775 1400 
Q 775 725 1037 437 
Q 1300 150 1725 150 
Q 2050 150 2275 337 
Q 2500 525 2600 800 
L 2725 750 
Q 2650 475 2387 212 
Q 2125 -50 1675 -50 
Q 1100 -50 737 325 
Q 375 700 375 1400 
Q 375 2025 737 2437 
Q 1100 2850 1625 2850 
Q 2100 2850 2450 2525 
Q 2800 2200 2800 1400 
L 775 1400 
z
" transform="scale(0.015625)"/>
       <path id="FangSong-72" d="M 1250 2025 
Q 1500 2425 1787 2637 
Q 2075 2850 2375 2850 
Q 2625 2850 2762 2737 
Q 2900 2625 2900 2475 
Q 2900 2350 2837 2275 
Q 2775 2200 2650 2200 
Q 2525 2200 2462 2275 
Q 2400 2350 2425 2475 
Q 2425 2550 2400 2600 
Q 2375 2650 2250 2650 
Q 2050 2650 1762 2400 
Q 1475 2150 1250 1700 
L 1250 350 
Q 1250 250 1312 200 
Q 1375 150 1475 150 
L 2025 150 
L 2025 0 
L 175 0 
L 175 150 
L 675 150 
Q 800 150 850 200 
Q 900 250 900 350 
L 900 2425 
Q 900 2525 850 2587 
Q 800 2650 675 2650 
L 200 2650 
L 200 2800 
L 400 2800 
Q 575 2800 812 2837 
Q 1050 2875 1175 2925 
L 1250 2925 
L 1250 2025 
z
" transform="scale(0.015625)"/>
       <path id="FangSong-4d" d="M 2775 350 
Q 2775 250 2837 200 
Q 2900 150 3000 150 
L 3100 150 
L 3100 0 
L 2025 0 
L 2025 150 
L 2150 150 
Q 2275 150 2325 200 
Q 2375 250 2375 350 
L 2375 3625 
L 2325 3625 
L 1475 0 
L 1325 0 
L 550 3550 
L 500 3550 
L 500 350 
Q 500 250 562 200 
Q 625 150 725 150 
L 800 150 
L 800 0 
L 50 0 
L 50 150 
L 125 150 
Q 250 150 300 200 
Q 350 250 350 350 
L 350 3925 
Q 350 4025 300 4075 
Q 250 4125 125 4125 
L 25 4125 
L 25 4275 
L 750 4275 
L 1475 925 
L 1525 925 
L 2300 4275 
L 3100 4275 
L 3100 4125 
L 3000 4125 
Q 2900 4125 2837 4075 
Q 2775 4025 2775 3925 
L 2775 350 
z
" transform="scale(0.015625)"/>
       <path id="FangSong-61" d="M 1200 -25 
Q 750 -25 500 187 
Q 250 400 250 675 
Q 250 1125 637 1412 
Q 1025 1700 2175 1825 
L 2175 2125 
Q 2175 2375 2062 2537 
Q 1950 2700 1550 2700 
Q 1125 2700 950 2562 
Q 775 2425 825 2275 
Q 875 2175 825 2075 
Q 775 1975 625 1975 
Q 525 1975 462 2037 
Q 400 2100 400 2225 
Q 400 2450 725 2650 
Q 1050 2850 1525 2850 
Q 2025 2850 2275 2662 
Q 2525 2475 2525 2125 
L 2525 475 
Q 2525 275 2562 237 
Q 2600 200 2700 200 
Q 2825 200 2875 312 
Q 2925 425 2925 625 
L 3050 625 
Q 3050 275 2925 137 
Q 2800 0 2600 0 
Q 2425 0 2325 75 
Q 2225 150 2175 325 
Q 1925 150 1712 62 
Q 1500 -25 1200 -25 
z
M 675 750 
Q 675 525 812 337 
Q 950 150 1250 150 
Q 1475 150 1700 237 
Q 1925 325 2175 500 
L 2175 1675 
Q 1325 1575 1000 1337 
Q 675 1100 675 750 
z
" transform="scale(0.015625)"/>
      </defs>
      <use xlink:href="#FangSong-50"/>
      <use xlink:href="#FangSong-5f" x="50"/>
      <use xlink:href="#FangSong-66" x="100"/>
      <use xlink:href="#FangSong-70" x="150"/>
      <use xlink:href="#FangSong-65" x="200"/>
      <use xlink:href="#FangSong-72" x="250"/>
      <use xlink:href="#FangSong-66" x="300"/>
      <use xlink:href="#FangSong-28" x="350"/>
      <use xlink:href="#FangSong-4d" x="400"/>
      <use xlink:href="#FangSong-50" x="450"/>
      <use xlink:href="#FangSong-61" x="500"/>
      <use xlink:href="#FangSong-29" x="550"/>
     </g>
    </g>
   </g>
   <g id="line2d_16">
    <path d="M 57.6 307.584 
L 59.3856 304.272384 
L 61.1712 294.337536 
L 62.9568 277.779456 
L 64.7424 254.598144 
L 66.528 224.7936 
L 68.3136 188.365824 
L 70.0992 145.314816 
L 71.8848 95.640576 
L 73.6704 39.343104 
L 74.81528 -1 
L 74.81528 -1 
" clip-path="url(#pd3954a0cf7)" style="fill: none; stroke: #000000; stroke-width: 0.5; stroke-linecap: square"/>
   </g>
   <g id="line2d_17">
    <path d="M 57.6 307.584 
L 59.3856 306.756096 
L 61.1712 304.272384 
L 62.9568 300.132864 
L 64.7424 294.337536 
L 66.528 286.8864 
L 68.3136 277.779456 
L 70.0992 267.016704 
L 71.8848 254.598144 
L 73.6704 240.523776 
L 75.456 224.7936 
L 77.2416 207.407616 
L 79.0272 188.365824 
L 80.8128 167.668224 
L 82.5984 145.314816 
L 84.384 121.3056 
L 86.1696 95.640576 
L 89.7408 39.343104 
L 92.063417 -1 
L 92.063417 -1 
" clip-path="url(#pd3954a0cf7)" style="fill: none; stroke: #000000; stroke-width: 0.5; stroke-linecap: square"/>
   </g>
   <g id="line2d_18">
    <path d="M 57.6 307.584 
L 59.3856 307.216043 
L 61.1712 306.112171 
L 62.9568 304.272384 
L 64.7424 301.696683 
L 66.528 298.385067 
L 68.3136 294.337536 
L 70.0992 289.554091 
L 71.8848 284.034731 
L 73.6704 277.779456 
L 75.456 270.788267 
L 77.2416 263.061163 
L 79.0272 254.598144 
L 80.8128 245.399211 
L 82.5984 235.464363 
L 84.384 224.7936 
L 86.1696 213.386923 
L 89.7408 188.365824 
L 93.312 160.401067 
L 96.8832 129.492651 
L 100.4544 95.640576 
L 104.0256 58.844843 
L 107.5968 19.105451 
L 109.308492 -1 
L 109.308492 -1 
" clip-path="url(#pd3954a0cf7)" style="fill: none; stroke: #000000; stroke-width: 0.5; stroke-linecap: square"/>
   </g>
   <g id="line2d_19">
    <path d="M 57.6 307.584 
L 59.3856 307.377024 
L 61.1712 306.756096 
L 62.9568 305.721216 
L 64.7424 304.272384 
L 66.528 302.4096 
L 68.3136 300.132864 
L 70.0992 297.442176 
L 71.8848 294.337536 
L 73.6704 290.818944 
L 75.456 286.8864 
L 77.2416 282.539904 
L 79.0272 277.779456 
L 80.8128 272.605056 
L 82.5984 267.016704 
L 84.384 261.0144 
L 87.9552 247.767936 
L 91.5264 232.865664 
L 95.0976 216.307584 
L 98.6688 198.093696 
L 102.24 178.224 
L 105.8112 156.698496 
L 109.3824 133.517184 
L 112.9536 108.680064 
L 116.5248 82.187136 
L 120.096 54.0384 
L 123.6672 24.233856 
L 126.540783 -1 
L 126.540783 -1 
" clip-path="url(#pd3954a0cf7)" style="fill: none; stroke: #000000; stroke-width: 0.5; stroke-linecap: square"/>
   </g>
   <g id="line2d_20">
    <path d="M 57.6 307.584 
L 59.3856 307.451535 
L 61.1712 307.054141 
L 62.9568 306.391818 
L 64.7424 305.464566 
L 66.528 304.272384 
L 68.3136 302.815273 
L 70.0992 301.093233 
L 71.8848 299.106263 
L 73.6704 296.854364 
L 75.456 294.337536 
L 77.2416 291.555779 
L 79.0272 288.509092 
L 80.8128 285.197476 
L 82.5984 281.620931 
L 84.384 277.779456 
L 87.9552 269.301719 
L 91.5264 259.764265 
L 95.0976 249.167094 
L 98.6688 237.510205 
L 102.24 224.7936 
L 105.8112 211.017277 
L 109.3824 196.181238 
L 112.9536 180.285481 
L 116.5248 163.330007 
L 120.096 145.314816 
L 123.6672 126.239908 
L 127.2384 106.105283 
L 130.8096 84.91094 
L 134.3808 62.656881 
L 137.952 39.343104 
L 141.5232 14.96961 
L 143.779269 -1 
L 143.779269 -1 
" clip-path="url(#pd3954a0cf7)" style="fill: none; stroke: #000000; stroke-width: 0.5; stroke-linecap: square"/>
   </g>
   <g id="line2d_21">
    <path d="M 57.6 307.584 
L 59.3856 307.492011 
L 61.1712 307.216043 
L 62.9568 306.756096 
L 64.7424 306.112171 
L 66.528 305.284267 
L 68.3136 304.272384 
L 70.0992 303.076523 
L 71.8848 301.696683 
L 73.6704 300.132864 
L 75.456 298.385067 
L 77.2416 296.453291 
L 79.0272 294.337536 
L 80.8128 292.037803 
L 84.384 286.8864 
L 87.9552 280.999083 
L 91.5264 274.375851 
L 95.0976 267.016704 
L 98.6688 258.921643 
L 102.24 250.090667 
L 105.8112 240.523776 
L 109.3824 230.220971 
L 112.9536 219.182251 
L 116.5248 207.407616 
L 120.096 194.897067 
L 123.6672 181.650603 
L 127.2384 167.668224 
L 130.8096 152.949931 
L 134.3808 137.495723 
L 137.952 121.3056 
L 141.5232 104.379563 
L 146.88 77.610667 
L 152.2368 49.185963 
L 157.5936 19.105451 
L 161.01827 -1 
L 161.01827 -1 
" clip-path="url(#pd3954a0cf7)" style="fill: none; stroke: #000000; stroke-width: 0.5; stroke-linecap: square"/>
   </g>
   <g id="line2d_22">
    <path d="M 57.6 307.584 
L 59.3856 307.516416 
L 61.1712 307.313664 
L 62.9568 306.975744 
L 64.7424 306.502656 
L 66.528 305.8944 
L 68.3136 305.150976 
L 70.0992 304.272384 
L 71.8848 303.258624 
L 73.6704 302.109696 
L 77.2416 299.406336 
L 80.8128 296.162304 
L 84.384 292.3776 
L 87.9552 288.052224 
L 91.5264 283.186176 
L 95.0976 277.779456 
L 98.6688 271.832064 
L 102.24 265.344 
L 105.8112 258.315264 
L 109.3824 250.745856 
L 112.9536 242.635776 
L 116.5248 233.985024 
L 120.096 224.7936 
L 123.6672 215.061504 
L 127.2384 204.788736 
L 130.8096 193.975296 
L 134.3808 182.621184 
L 137.952 170.7264 
L 141.5232 158.290944 
L 146.88 138.624 
L 152.2368 117.740544 
L 157.5936 95.640576 
L 162.9504 72.324096 
L 168.3072 47.791104 
L 173.664 22.0416 
L 178.252764 -1 
L 178.252764 -1 
" clip-path="url(#pd3954a0cf7)" style="fill: none; stroke: #000000; stroke-width: 0.5; stroke-linecap: square"/>
   </g>
   <g id="line2d_23">
    <path d="M 57.6 307.584 
L 61.1712 307.377024 
L 64.7424 306.756096 
L 68.3136 305.721216 
L 71.8848 304.272384 
L 75.456 302.4096 
L 79.0272 300.132864 
L 82.5984 297.442176 
L 86.1696 294.337536 
L 89.7408 290.818944 
L 93.312 286.8864 
L 96.8832 282.539904 
L 100.4544 277.779456 
L 104.0256 272.605056 
L 107.5968 267.016704 
L 111.168 261.0144 
L 114.7392 254.598144 
L 118.3104 247.767936 
L 121.8816 240.523776 
L 125.4528 232.865664 
L 129.024 224.7936 
L 132.5952 216.307584 
L 136.1664 207.407616 
L 139.7376 198.093696 
L 145.0944 183.346656 
L 150.4512 167.668224 
L 155.808 151.0584 
L 161.1648 133.517184 
L 166.5216 115.044576 
L 171.8784 95.640576 
L 177.2352 75.305184 
L 182.592 54.0384 
L 187.9488 31.840224 
L 193.3056 8.710656 
L 195.490567 -1 
L 195.490567 -1 
" clip-path="url(#pd3954a0cf7)" style="fill: none; stroke: #000000; stroke-width: 0.5; stroke-linecap: square"/>
   </g>
   <g id="line2d_24">
    <path d="M 57.6 307.584 
L 61.1712 307.420463 
L 64.7424 306.929854 
L 68.3136 306.112171 
L 71.8848 304.967415 
L 75.456 303.495585 
L 79.0272 301.696683 
L 82.5984 299.570707 
L 86.1696 297.117658 
L 89.7408 294.337536 
L 93.312 291.230341 
L 96.8832 287.796072 
L 100.4544 284.034731 
L 104.0256 279.946316 
L 107.5968 275.530828 
L 111.168 270.788267 
L 114.7392 265.718632 
L 118.3104 260.321925 
L 121.8816 254.598144 
L 125.4528 248.54729 
L 129.024 242.169363 
L 132.5952 235.464363 
L 136.1664 228.432289 
L 141.5232 217.270917 
L 146.88 205.37363 
L 152.2368 192.740428 
L 157.5936 179.371311 
L 162.9504 165.26628 
L 168.3072 150.425335 
L 173.664 134.848474 
L 179.0208 118.535699 
L 184.3776 101.487009 
L 189.7344 83.702405 
L 195.0912 65.181886 
L 200.448 45.925452 
L 205.8048 25.933103 
L 211.1616 5.20484 
L 212.72804 -1 
L 212.72804 -1 
" clip-path="url(#pd3954a0cf7)" style="fill: none; stroke: #000000; stroke-width: 0.5; stroke-linecap: square"/>
   </g>
   <g id="line2d_25">
    <path d="M 57.6 307.584 
L 61.1712 307.451535 
L 64.7424 307.054141 
L 68.3136 306.391818 
L 71.8848 305.464566 
L 75.456 304.272384 
L 79.0272 302.815273 
L 82.5984 301.093233 
L 86.1696 299.106263 
L 89.7408 296.854364 
L 93.312 294.337536 
L 96.8832 291.555779 
L 100.4544 288.509092 
L 104.0256 285.197476 
L 107.5968 281.620931 
L 111.168 277.779456 
L 114.7392 273.673052 
L 118.3104 269.301719 
L 121.8816 264.665457 
L 125.4528 259.764265 
L 129.024 254.598144 
L 134.3808 246.35222 
L 139.7376 237.510205 
L 145.0944 228.0721 
L 150.4512 218.037903 
L 155.808 207.407616 
L 161.1648 196.181238 
L 166.5216 184.358769 
L 171.8784 171.940209 
L 177.2352 158.925558 
L 182.592 145.314816 
L 187.9488 131.107983 
L 193.3056 116.30506 
L 198.6624 100.906045 
L 204.0192 84.91094 
L 209.376 68.319744 
L 214.7328 51.132457 
L 220.0896 33.349079 
L 225.4464 14.96961 
L 229.963414 -1 
L 229.963414 -1 
" clip-path="url(#pd3954a0cf7)" style="fill: none; stroke: #000000; stroke-width: 0.5; stroke-linecap: square"/>
   </g>
   <g id="line2d_26">
    <path d="M 57.6 307.584 
L 61.1712 307.474525 
L 64.7424 307.1461 
L 68.3136 306.598726 
L 71.8848 305.832401 
L 75.456 304.847127 
L 79.0272 303.642903 
L 82.5984 302.219729 
L 86.1696 300.577606 
L 89.7408 298.716532 
L 93.312 296.636509 
L 96.8832 294.337536 
L 100.4544 291.819613 
L 104.0256 289.08274 
L 107.5968 286.126918 
L 111.168 282.952145 
L 114.7392 279.558423 
L 118.3104 275.945751 
L 121.8816 272.114129 
L 127.2384 265.956166 
L 132.5952 259.305565 
L 137.952 252.162327 
L 143.3088 244.526452 
L 148.6656 236.39794 
L 154.0224 227.776791 
L 159.3792 218.663005 
L 164.736 209.056582 
L 170.0928 198.957521 
L 175.4496 188.365824 
L 180.8064 177.281489 
L 186.1632 165.704518 
L 191.52 153.634909 
L 196.8768 141.072663 
L 202.2336 128.01778 
L 207.5904 114.47026 
L 212.9472 100.430103 
L 218.304 85.897309 
L 223.6608 70.871878 
L 230.8032 50.071645 
L 237.9456 28.395613 
L 245.088 5.843782 
L 247.201031 -1 
L 247.201031 -1 
" clip-path="url(#pd3954a0cf7)" style="fill: none; stroke: #000000; stroke-width: 0.5; stroke-linecap: square"/>
   </g>
   <g id="line2d_27">
    <path d="M 57.6 307.584 
L 61.1712 307.492011 
L 64.7424 307.216043 
L 68.3136 306.756096 
L 71.8848 306.112171 
L 75.456 305.284267 
L 79.0272 304.272384 
L 82.5984 303.076523 
L 86.1696 301.696683 
L 89.7408 300.132864 
L 93.312 298.385067 
L 96.8832 296.453291 
L 100.4544 294.337536 
L 104.0256 292.037803 
L 107.5968 289.554091 
L 111.168 286.8864 
L 116.5248 282.539904 
L 121.8816 277.779456 
L 127.2384 272.605056 
L 132.5952 267.016704 
L 137.952 261.0144 
L 143.3088 254.598144 
L 148.6656 247.767936 
L 154.0224 240.523776 
L 159.3792 232.865664 
L 164.736 224.7936 
L 170.0928 216.307584 
L 175.4496 207.407616 
L 180.8064 198.093696 
L 186.1632 188.365824 
L 191.52 178.224 
L 196.8768 167.668224 
L 202.2336 156.698496 
L 207.5904 145.314816 
L 212.9472 133.517184 
L 218.304 121.3056 
L 225.4464 104.379563 
L 232.5888 86.717611 
L 239.7312 68.319744 
L 246.8736 49.185963 
L 254.016 29.316267 
L 261.1584 8.710656 
L 264.437808 -1 
L 264.437808 -1 
" clip-path="url(#pd3954a0cf7)" style="fill: none; stroke: #000000; stroke-width: 0.5; stroke-linecap: square"/>
   </g>
   <g id="line2d_28">
    <path d="M 57.6 307.584 
L 61.1712 307.505619 
L 64.7424 307.270474 
L 68.3136 306.878567 
L 71.8848 306.329897 
L 75.456 305.624464 
L 79.0272 304.762268 
L 82.5984 303.743309 
L 86.1696 302.567588 
L 91.5264 300.510075 
L 96.8832 298.099845 
L 102.24 295.336899 
L 107.5968 292.221237 
L 112.9536 288.752858 
L 118.3104 284.931763 
L 123.6672 280.757951 
L 129.024 276.231422 
L 134.3808 271.352178 
L 139.7376 266.120216 
L 145.0944 260.535538 
L 150.4512 254.598144 
L 155.808 248.308033 
L 161.1648 241.665206 
L 166.5216 234.669662 
L 171.8784 227.321402 
L 177.2352 219.620425 
L 182.592 211.566731 
L 187.9488 203.160322 
L 193.3056 194.401195 
L 198.6624 185.289352 
L 204.0192 175.824793 
L 209.376 166.007517 
L 216.5184 152.369146 
L 223.6608 138.103723 
L 230.8032 123.211249 
L 237.9456 107.691723 
L 245.088 91.545146 
L 252.2304 74.771517 
L 259.3728 57.370836 
L 266.5152 39.343104 
L 273.6576 20.68832 
L 281.673656 -1 
L 281.673656 -1 
" clip-path="url(#pd3954a0cf7)" style="fill: none; stroke: #000000; stroke-width: 0.5; stroke-linecap: square"/>
   </g>
   <g id="line2d_29">
    <path d="M 57.6 307.584 
L 62.9568 307.431936 
L 68.3136 306.975744 
L 73.6704 306.215424 
L 79.0272 305.150976 
L 84.384 303.7824 
L 89.7408 302.109696 
L 95.0976 300.132864 
L 100.4544 297.851904 
L 105.8112 295.266816 
L 111.168 292.3776 
L 116.5248 289.184256 
L 121.8816 285.686784 
L 127.2384 281.885184 
L 132.5952 277.779456 
L 137.952 273.3696 
L 143.3088 268.655616 
L 148.6656 263.637504 
L 154.0224 258.315264 
L 159.3792 252.688896 
L 164.736 246.7584 
L 170.0928 240.523776 
L 175.4496 233.985024 
L 180.8064 227.142144 
L 186.1632 219.995136 
L 191.52 212.544 
L 196.8768 204.788736 
L 202.2336 196.729344 
L 209.376 185.5104 
L 216.5184 173.750784 
L 223.6608 161.450496 
L 230.8032 148.609536 
L 237.9456 135.227904 
L 245.088 121.3056 
L 252.2304 106.842624 
L 259.3728 91.838976 
L 266.5152 76.294656 
L 273.6576 60.209664 
L 280.8 43.584 
L 287.9424 26.417664 
L 295.0848 8.710656 
L 298.911196 -1 
L 298.911196 -1 
" clip-path="url(#pd3954a0cf7)" style="fill: none; stroke: #000000; stroke-width: 0.5; stroke-linecap: square"/>
   </g>
   <g id="line2d_30">
    <path d="M 57.6 307.584 
L 62.9568 307.451535 
L 68.3136 307.054141 
L 73.6704 306.391818 
L 79.0272 305.464566 
L 84.384 304.272384 
L 89.7408 302.815273 
L 95.0976 301.093233 
L 100.4544 299.106263 
L 105.8112 296.854364 
L 111.168 294.337536 
L 116.5248 291.555779 
L 121.8816 288.509092 
L 127.2384 285.197476 
L 132.5952 281.620931 
L 137.952 277.779456 
L 143.3088 273.673052 
L 148.6656 269.301719 
L 154.0224 264.665457 
L 159.3792 259.764265 
L 164.736 254.598144 
L 170.0928 249.167094 
L 175.4496 243.471114 
L 180.8064 237.510205 
L 186.1632 231.284367 
L 191.52 224.7936 
L 198.6624 215.727131 
L 205.8048 206.189677 
L 212.9472 196.181238 
L 220.0896 185.701813 
L 227.232 174.751403 
L 234.3744 163.330007 
L 241.5168 151.437626 
L 248.6592 139.07426 
L 255.8016 126.239908 
L 262.944 112.934571 
L 270.0864 99.158248 
L 277.2288 84.91094 
L 284.3712 70.192647 
L 291.5136 55.003368 
L 298.656 39.343104 
L 305.7984 23.211855 
L 312.9408 6.60962 
L 316.147576 -1 
L 316.147576 -1 
" clip-path="url(#pd3954a0cf7)" style="fill: none; stroke: #000000; stroke-width: 0.5; stroke-linecap: square"/>
   </g>
   <g id="line2d_31">
    <path d="M 57.6 307.584 
L 62.9568 307.467576 
L 68.3136 307.118304 
L 73.6704 306.536184 
L 79.0272 305.721216 
L 84.384 304.6734 
L 89.7408 303.392736 
L 95.0976 301.879224 
L 100.4544 300.132864 
L 105.8112 298.153656 
L 111.168 295.9416 
L 116.5248 293.496696 
L 121.8816 290.818944 
L 127.2384 287.908344 
L 132.5952 284.764896 
L 137.952 281.3886 
L 143.3088 277.779456 
L 148.6656 273.937464 
L 154.0224 269.862624 
L 159.3792 265.554936 
L 164.736 261.0144 
L 170.0928 256.241016 
L 175.4496 251.234784 
L 180.8064 245.995704 
L 187.9488 238.648056 
L 195.0912 230.886456 
L 202.2336 222.710904 
L 209.376 214.1214 
L 216.5184 205.117944 
L 223.6608 195.700536 
L 230.8032 185.869176 
L 237.9456 175.623864 
L 245.088 164.9646 
L 252.2304 153.891384 
L 259.3728 142.404216 
L 266.5152 130.503096 
L 273.6576 118.188024 
L 280.8 105.459 
L 287.9424 92.316024 
L 295.0848 78.759096 
L 302.2272 64.788216 
L 309.3696 50.403384 
L 316.512 35.6046 
L 325.44 16.524 
L 333.383719 -1 
L 333.383719 -1 
" clip-path="url(#pd3954a0cf7)" style="fill: none; stroke: #000000; stroke-width: 0.5; stroke-linecap: square"/>
   </g>
   <g id="line2d_32">
    <path d="M 57.6 307.584 
L 62.9568 307.48087 
L 68.3136 307.17148 
L 73.6704 306.655831 
L 79.0272 305.933921 
L 84.384 305.005752 
L 89.7408 303.871323 
L 95.0976 302.530634 
L 100.4544 300.983686 
L 105.8112 299.230477 
L 111.168 297.271009 
L 116.5248 295.105281 
L 121.8816 292.733293 
L 127.2384 290.155045 
L 132.5952 287.370538 
L 137.952 284.37977 
L 143.3088 281.182743 
L 148.6656 277.779456 
L 154.0224 274.169909 
L 159.3792 270.354102 
L 166.5216 264.945512 
L 173.664 259.170237 
L 180.8064 253.028278 
L 187.9488 246.519634 
L 195.0912 239.644307 
L 202.2336 232.402296 
L 209.376 224.7936 
L 216.5184 216.81822 
L 223.6608 208.476156 
L 230.8032 199.767408 
L 237.9456 190.691976 
L 245.088 181.24986 
L 252.2304 171.44106 
L 259.3728 161.265575 
L 266.5152 150.723407 
L 273.6576 139.814554 
L 280.8 128.539017 
L 287.9424 116.896796 
L 295.0848 104.887891 
L 302.2272 92.512302 
L 309.3696 79.770029 
L 318.2976 63.326538 
L 327.2256 46.310102 
L 336.1536 28.720723 
L 345.0816 10.5584 
L 350.621221 -1 
L 350.621221 -1 
" clip-path="url(#pd3954a0cf7)" style="fill: none; stroke: #000000; stroke-width: 0.5; stroke-linecap: square"/>
   </g>
   <g id="line2d_33">
    <path d="M 57.6 307.584 
L 62.9568 307.492011 
L 68.3136 307.216043 
L 73.6704 306.756096 
L 79.0272 306.112171 
L 84.384 305.284267 
L 89.7408 304.272384 
L 95.0976 303.076523 
L 100.4544 301.696683 
L 105.8112 300.132864 
L 111.168 298.385067 
L 116.5248 296.453291 
L 121.8816 294.337536 
L 127.2384 292.037803 
L 132.5952 289.554091 
L 139.7376 285.956286 
L 146.88 282.031407 
L 154.0224 277.779456 
L 161.1648 273.200431 
L 168.3072 268.294334 
L 175.4496 263.061163 
L 182.592 257.500919 
L 189.7344 251.613601 
L 196.8768 245.399211 
L 204.0192 238.857747 
L 211.1616 231.98921 
L 218.304 224.7936 
L 225.4464 217.270917 
L 232.5888 209.42116 
L 239.7312 201.244331 
L 246.8736 192.740428 
L 254.016 183.909452 
L 261.1584 174.751403 
L 268.3008 165.26628 
L 275.4432 155.454085 
L 282.5856 145.314816 
L 289.728 134.848474 
L 296.8704 124.055059 
L 304.0128 112.934571 
L 312.9408 98.574014 
L 321.8688 83.702405 
L 330.7968 68.319744 
L 339.7248 52.426031 
L 348.6528 36.021267 
L 357.5808 19.105451 
L 366.5088 1.678583 
L 367.857343 -1 
L 367.857343 -1 
" clip-path="url(#pd3954a0cf7)" style="fill: none; stroke: #000000; stroke-width: 0.5; stroke-linecap: square"/>
   </g>
   <g id="line2d_34">
    <path d="M 57.6 307.584 
L 64.7424 307.437225 
L 71.8848 306.996899 
L 79.0272 306.263023 
L 86.1696 305.235596 
L 93.312 303.914619 
L 100.4544 302.300092 
L 107.5968 300.392014 
L 114.7392 298.190386 
L 121.8816 295.695207 
L 129.024 292.906478 
L 136.1664 289.824198 
L 143.3088 286.448368 
L 150.4512 282.778987 
L 157.5936 278.816056 
L 164.736 274.559575 
L 171.8784 270.009543 
L 179.0208 265.16596 
L 186.1632 260.028827 
L 193.3056 254.598144 
L 200.448 248.87391 
L 207.5904 242.856126 
L 214.7328 236.544791 
L 221.8752 229.939906 
L 229.0176 223.041471 
L 236.16 215.849485 
L 243.3024 208.363948 
L 250.4448 200.584861 
L 257.5872 192.512224 
L 264.7296 184.146036 
L 271.872 175.486298 
L 279.0144 166.533009 
L 286.1568 157.28617 
L 295.0848 145.314816 
L 304.0128 132.884789 
L 312.9408 119.99609 
L 321.8688 106.648718 
L 330.7968 92.842673 
L 339.7248 78.577956 
L 348.6528 63.854566 
L 357.5808 48.672504 
L 366.5088 33.031769 
L 375.4368 16.932362 
L 385.093689 -1 
L 385.093689 -1 
" clip-path="url(#pd3954a0cf7)" style="fill: none; stroke: #000000; stroke-width: 0.5; stroke-linecap: square"/>
   </g>
   <g id="line2d_35">
    <path d="M 57.6 307.584 
L 64.7424 307.451535 
L 71.8848 307.054141 
L 79.0272 306.391818 
L 86.1696 305.464566 
L 93.312 304.272384 
L 100.4544 302.815273 
L 107.5968 301.093233 
L 114.7392 299.106263 
L 121.8816 296.854364 
L 129.024 294.337536 
L 136.1664 291.555779 
L 143.3088 288.509092 
L 150.4512 285.197476 
L 157.5936 281.620931 
L 164.736 277.779456 
L 171.8784 273.673052 
L 179.0208 269.301719 
L 186.1632 264.665457 
L 193.3056 259.764265 
L 200.448 254.598144 
L 207.5904 249.167094 
L 214.7328 243.471114 
L 221.8752 237.510205 
L 229.0176 231.284367 
L 236.16 224.7936 
L 243.3024 218.037903 
L 250.4448 211.017277 
L 257.5872 203.731722 
L 264.7296 196.181238 
L 271.872 188.365824 
L 280.8 178.224 
L 289.728 167.668224 
L 298.656 156.698496 
L 307.584 145.314816 
L 316.512 133.517184 
L 325.44 121.3056 
L 334.368 108.680064 
L 343.296 95.640576 
L 352.224 82.187136 
L 361.152 68.319744 
L 370.08 54.0384 
L 379.008 39.343104 
L 387.936 24.233856 
L 396.864 8.710656 
L 402.331168 -1 
L 402.331168 -1 
" clip-path="url(#pd3954a0cf7)" style="fill: none; stroke: #000000; stroke-width: 0.5; stroke-linecap: square"/>
   </g>
   <g id="line2d_36">
    <path d="M 57.6 307.584 
L 64.7424 307.463851 
L 71.8848 307.103403 
L 79.0272 306.502656 
L 86.1696 305.661611 
L 93.312 304.580267 
L 100.4544 303.258624 
L 107.5968 301.696683 
L 114.7392 299.894443 
L 121.8816 297.851904 
L 129.024 295.569067 
L 136.1664 293.045931 
L 143.3088 290.282496 
L 150.4512 287.278763 
L 157.5936 284.034731 
L 164.736 280.5504 
L 171.8784 276.825771 
L 179.0208 272.860843 
L 186.1632 268.655616 
L 193.3056 264.210091 
L 200.448 259.524267 
L 207.5904 254.598144 
L 214.7328 249.431723 
L 221.8752 244.025003 
L 229.0176 238.377984 
L 236.16 232.490667 
L 243.3024 226.363051 
L 250.4448 219.995136 
L 259.3728 211.697323 
L 268.3008 203.024043 
L 277.2288 193.975296 
L 286.1568 184.551083 
L 295.0848 174.751403 
L 304.0128 164.576256 
L 312.9408 154.025643 
L 321.8688 143.099563 
L 330.7968 131.798016 
L 339.7248 120.121003 
L 348.6528 108.068523 
L 357.5808 95.640576 
L 366.5088 82.837163 
L 375.4368 69.658283 
L 384.3648 56.103936 
L 393.2928 42.174123 
L 402.2208 27.868843 
L 411.1488 13.188096 
L 414.72 7.210667 
L 414.72 7.210667 
" clip-path="url(#pd3954a0cf7)" style="fill: none; stroke: #000000; stroke-width: 0.5; stroke-linecap: square"/>
   </g>
   <g id="line2d_37">
    <path d="M 57.6 307.584 
L 64.7424 307.474525 
L 71.8848 307.1461 
L 79.0272 306.598726 
L 86.1696 305.832401 
L 93.312 304.847127 
L 100.4544 303.642903 
L 107.5968 302.219729 
L 114.7392 300.577606 
L 121.8816 298.716532 
L 129.024 296.636509 
L 136.1664 294.337536 
L 143.3088 291.819613 
L 150.4512 289.08274 
L 157.5936 286.126918 
L 164.736 282.952145 
L 171.8784 279.558423 
L 179.0208 275.945751 
L 186.1632 272.114129 
L 193.3056 268.063558 
L 200.448 263.794036 
L 207.5904 259.305565 
L 214.7328 254.598144 
L 221.8752 249.671773 
L 229.0176 244.526452 
L 237.9456 237.786903 
L 246.8736 230.705245 
L 255.8016 223.281478 
L 264.7296 215.515601 
L 273.6576 207.407616 
L 282.5856 198.957521 
L 291.5136 190.165318 
L 300.4416 181.031005 
L 309.3696 171.554583 
L 318.2976 161.736052 
L 327.2256 151.575412 
L 336.1536 141.072663 
L 345.0816 130.227805 
L 354.0096 119.040838 
L 362.9376 107.511761 
L 371.8656 95.640576 
L 380.7936 83.427281 
L 389.7216 70.871878 
L 398.6496 57.974365 
L 407.5776 44.734743 
L 414.72 33.896727 
L 414.72 33.896727 
" clip-path="url(#pd3954a0cf7)" style="fill: none; stroke: #000000; stroke-width: 0.5; stroke-linecap: square"/>
   </g>
   <g id="line2d_38">
    <path d="M 57.6 307.584 
L 64.7424 307.483838 
L 71.8848 307.183351 
L 79.0272 306.682539 
L 86.1696 305.981403 
L 93.312 305.079943 
L 100.4544 303.978157 
L 107.5968 302.676047 
L 114.7392 301.173613 
L 121.8816 299.470854 
L 129.024 297.56777 
L 136.1664 295.464362 
L 143.3088 293.160629 
L 150.4512 290.656572 
L 157.5936 287.952189 
L 164.736 285.047483 
L 171.8784 281.942452 
L 179.0208 278.637096 
L 186.1632 275.131415 
L 193.3056 271.42541 
L 202.2336 266.511197 
L 211.1616 261.283977 
L 220.0896 255.74375 
L 229.0176 249.890516 
L 237.9456 243.724274 
L 246.8736 237.245026 
L 255.8016 230.45277 
L 264.7296 223.347507 
L 273.6576 215.929237 
L 282.5856 208.197959 
L 291.5136 200.153675 
L 300.4416 191.796383 
L 309.3696 183.126084 
L 318.2976 174.142778 
L 327.2256 164.846464 
L 336.1536 155.237144 
L 345.0816 145.314816 
L 354.0096 135.079481 
L 362.9376 124.531139 
L 371.8656 113.66979 
L 380.7936 102.495433 
L 389.7216 91.00807 
L 398.6496 79.207699 
L 407.5776 67.094321 
L 414.72 57.178253 
L 414.72 57.178253 
" clip-path="url(#pd3954a0cf7)" style="fill: none; stroke: #000000; stroke-width: 0.5; stroke-linecap: square"/>
   </g>
   <g id="line2d_39">
    <path d="M 57.6 307.584 
L 64.7424 307.492011 
L 71.8848 307.216043 
L 79.0272 306.756096 
L 86.1696 306.112171 
L 93.312 305.284267 
L 100.4544 304.272384 
L 107.5968 303.076523 
L 114.7392 301.696683 
L 121.8816 300.132864 
L 129.024 298.385067 
L 136.1664 296.453291 
L 145.0944 293.779851 
L 154.0224 290.818944 
L 162.9504 287.570571 
L 171.8784 284.034731 
L 180.8064 280.211424 
L 189.7344 276.100651 
L 198.6624 271.702411 
L 207.5904 267.016704 
L 216.5184 262.043531 
L 225.4464 256.782891 
L 234.3744 251.234784 
L 243.3024 245.399211 
L 252.2304 239.276171 
L 261.1584 232.865664 
L 270.0864 226.167691 
L 279.0144 219.182251 
L 287.9424 211.909344 
L 296.8704 204.348971 
L 305.7984 196.501131 
L 314.7264 188.365824 
L 323.6544 179.943051 
L 332.5824 171.232811 
L 341.5104 162.235104 
L 350.4384 152.949931 
L 359.3664 143.377291 
L 368.2944 133.517184 
L 377.2224 123.369611 
L 386.1504 112.934571 
L 396.864 100.033067 
L 407.5776 86.717611 
L 414.72 77.610667 
L 414.72 77.610667 
" clip-path="url(#pd3954a0cf7)" style="fill: none; stroke: #000000; stroke-width: 0.5; stroke-linecap: square"/>
   </g>
   <g id="line2d_40">
    <path d="M 57.6 307.584 
L 66.528 307.451535 
L 75.456 307.054141 
L 84.384 306.391818 
L 93.312 305.464566 
L 102.24 304.272384 
L 111.168 302.815273 
L 120.096 301.093233 
L 129.024 299.106263 
L 137.952 296.854364 
L 146.88 294.337536 
L 155.808 291.555779 
L 164.736 288.509092 
L 173.664 285.197476 
L 182.592 281.620931 
L 191.52 277.779456 
L 200.448 273.673052 
L 209.376 269.301719 
L 218.304 264.665457 
L 227.232 259.764265 
L 236.16 254.598144 
L 245.088 249.167094 
L 254.016 243.471114 
L 262.944 237.510205 
L 271.872 231.284367 
L 280.8 224.7936 
L 289.728 218.037903 
L 298.656 211.017277 
L 307.584 203.731722 
L 316.512 196.181238 
L 325.44 188.365824 
L 334.368 180.285481 
L 343.296 171.940209 
L 352.224 163.330007 
L 361.152 154.454876 
L 370.08 145.314816 
L 380.7936 133.997037 
L 391.5072 122.29776 
L 402.2208 110.216985 
L 412.9344 97.754712 
L 414.72 95.640576 
L 414.72 95.640576 
" clip-path="url(#pd3954a0cf7)" style="fill: none; stroke: #000000; stroke-width: 0.5; stroke-linecap: square"/>
   </g>
   <g id="line2d_41">
    <path d="M 57.6 307.584 
L 66.528 307.461529 
L 75.456 307.094116 
L 84.384 306.481761 
L 93.312 305.624464 
L 102.24 304.522225 
L 111.168 303.175044 
L 120.096 301.582921 
L 129.024 299.745856 
L 137.952 297.663849 
L 146.88 295.336899 
L 155.808 292.765008 
L 164.736 289.948175 
L 173.664 286.8864 
L 182.592 283.579683 
L 191.52 280.028024 
L 200.448 276.231422 
L 209.376 272.189879 
L 218.304 267.903394 
L 227.232 263.371967 
L 236.16 258.595598 
L 245.088 253.574286 
L 254.016 248.308033 
L 262.944 242.796838 
L 271.872 237.040701 
L 280.8 231.039621 
L 289.728 224.7936 
L 298.656 218.302637 
L 307.584 211.566731 
L 316.512 204.585884 
L 325.44 197.360095 
L 334.368 189.889363 
L 343.296 182.17369 
L 354.0096 172.591558 
L 364.7232 162.65671 
L 375.4368 152.369146 
L 386.1504 141.728865 
L 396.864 130.735867 
L 407.5776 119.390153 
L 414.72 111.630391 
L 414.72 111.630391 
" clip-path="url(#pd3954a0cf7)" style="fill: none; stroke: #000000; stroke-width: 0.5; stroke-linecap: square"/>
   </g>
   <g id="line2d_42">
    <path d="M 57.6 307.584 
L 66.528 307.470433 
L 75.456 307.129732 
L 84.384 306.561896 
L 93.312 305.766927 
L 102.24 304.744823 
L 111.168 303.495585 
L 120.096 302.019213 
L 129.024 300.315707 
L 137.952 298.385067 
L 146.88 296.227292 
L 155.808 293.842384 
L 164.736 291.230341 
L 173.664 288.391164 
L 182.592 285.324853 
L 191.52 282.031407 
L 200.448 278.510828 
L 209.376 274.763114 
L 218.304 270.788267 
L 227.232 266.586285 
L 236.16 262.157169 
L 245.088 257.500919 
L 254.016 252.617534 
L 262.944 247.507016 
L 271.872 242.169363 
L 280.8 236.604576 
L 289.728 230.812655 
L 298.656 224.7936 
L 307.584 218.547411 
L 318.2976 210.752166 
L 329.0112 202.629849 
L 339.7248 194.180458 
L 350.4384 185.403995 
L 361.152 176.300458 
L 371.8656 166.869847 
L 382.5792 157.112164 
L 393.2928 147.027408 
L 404.0064 136.615578 
L 414.72 125.876675 
L 414.72 125.876675 
" clip-path="url(#pd3954a0cf7)" style="fill: none; stroke: #000000; stroke-width: 0.5; stroke-linecap: square"/>
   </g>
   <g id="line2d_43">
    <path d="M 57.6 307.584 
L 66.528 307.4784 
L 75.456 307.1616 
L 84.384 306.6336 
L 93.312 305.8944 
L 102.24 304.944 
L 111.168 303.7824 
L 120.096 302.4096 
L 129.024 300.8256 
L 137.952 299.0304 
L 146.88 297.024 
L 155.808 294.8064 
L 164.736 292.3776 
L 173.664 289.7376 
L 182.592 286.8864 
L 191.52 283.824 
L 200.448 280.5504 
L 209.376 277.0656 
L 218.304 273.3696 
L 227.232 269.4624 
L 236.16 265.344 
L 245.088 261.0144 
L 254.016 256.4736 
L 262.944 251.7216 
L 271.872 246.7584 
L 282.5856 240.523776 
L 293.2992 233.985024 
L 304.0128 227.142144 
L 314.7264 219.995136 
L 325.44 212.544 
L 336.1536 204.788736 
L 346.8672 196.729344 
L 357.5808 188.365824 
L 368.2944 179.698176 
L 379.008 170.7264 
L 389.7216 161.450496 
L 400.4352 151.870464 
L 411.1488 141.986304 
L 414.72 138.624 
L 414.72 138.624 
" clip-path="url(#pd3954a0cf7)" style="fill: none; stroke: #000000; stroke-width: 0.5; stroke-linecap: square"/>
   </g>
   <g id="line2d_44">
    <path d="M 57.6 307.584 
L 66.528 307.485557 
L 75.456 307.190229 
L 84.384 306.698015 
L 93.312 306.008915 
L 102.24 305.12293 
L 111.168 304.040059 
L 120.096 302.760302 
L 129.024 301.28366 
L 137.952 299.610133 
L 146.88 297.739719 
L 155.808 295.67242 
L 164.736 293.408236 
L 173.664 290.947166 
L 182.592 288.28921 
L 191.52 285.434369 
L 200.448 282.382642 
L 209.376 279.134029 
L 220.0896 274.975805 
L 230.8032 270.534065 
L 241.5168 265.808811 
L 252.2304 260.800041 
L 262.944 255.507756 
L 273.6576 249.931955 
L 284.3712 244.072639 
L 295.0848 237.929808 
L 305.7984 231.503462 
L 316.512 224.7936 
L 327.2256 217.800223 
L 337.9392 210.523331 
L 348.6528 202.962923 
L 359.3664 195.119001 
L 370.08 186.991562 
L 380.7936 178.580609 
L 391.5072 169.88614 
L 402.2208 160.908156 
L 412.9344 151.646657 
L 414.72 150.07551 
L 414.72 150.07551 
" clip-path="url(#pd3954a0cf7)" style="fill: none; stroke: #000000; stroke-width: 0.5; stroke-linecap: square"/>
   </g>
   <g id="line2d_45">
    <path d="M 57.6 307.584 
L 68.3136 307.451535 
L 79.0272 307.054141 
L 89.7408 306.391818 
L 100.4544 305.464566 
L 111.168 304.272384 
L 121.8816 302.815273 
L 132.5952 301.093233 
L 143.3088 299.106263 
L 154.0224 296.854364 
L 164.736 294.337536 
L 175.4496 291.555779 
L 186.1632 288.509092 
L 196.8768 285.197476 
L 207.5904 281.620931 
L 218.304 277.779456 
L 229.0176 273.673052 
L 239.7312 269.301719 
L 250.4448 264.665457 
L 261.1584 259.764265 
L 271.872 254.598144 
L 282.5856 249.167094 
L 293.2992 243.471114 
L 304.0128 237.510205 
L 314.7264 231.284367 
L 325.44 224.7936 
L 336.1536 218.037903 
L 346.8672 211.017277 
L 357.5808 203.731722 
L 368.2944 196.181238 
L 379.008 188.365824 
L 389.7216 180.285481 
L 400.4352 171.940209 
L 411.1488 163.330007 
L 414.72 160.401067 
L 414.72 160.401067 
" clip-path="url(#pd3954a0cf7)" style="fill: none; stroke: #000000; stroke-width: 0.5; stroke-linecap: square"/>
   </g>
   <g id="line2d_46">
    <path d="M 57.6 282.569472 
L 57.6 283.101696 
L 57.6 283.101696 
L 59.3856 286.28556 
L 59.3856 286.28556 
L 61.1712 287.611907 
L 59.3856 286.28556 
L 57.6 283.101696 
L 59.3856 286.28556 
L 62.9568 288.637524 
L 66.528 288.204181 
L 68.3136 288.716329 
L 66.528 288.204181 
L 62.9568 288.637524 
L 61.1712 287.611907 
L 59.3856 286.28556 
L 59.3856 286.28556 
L 57.6 283.101696 
L 57.6 283.101696 
L 57.6 281.505024 
L 59.3856 283.092216 
L 61.1712 282.821891 
L 62.9568 282.250836 
L 64.7424 282.059151 
L 66.528 282.836339 
L 68.3136 281.265193 
L 68.3136 281.265193 
L 71.8848 282.199249 
L 71.8848 282.199249 
L 71.8848 281.667025 
L 73.6704 281.570333 
L 73.6704 281.570333 
L 73.6704 276.248093 
L 75.456 275.071883 
L 79.0272 273.750293 
L 80.8128 273.609195 
L 80.8128 273.076971 
L 82.5984 272.397468 
L 84.384 272.245274 
L 84.384 271.71305 
L 86.1696 271.557001 
L 87.9552 269.696186 
L 89.7408 270.01787 
L 91.5264 269.807149 
L 89.7408 268.953422 
L 89.7408 268.953422 
L 89.7408 268.421198 
L 87.9552 269.269096 
L 87.9552 269.269096 
L 87.9552 265.011304 
L 89.7408 263.253429 
L 93.312 260.016685 
L 95.0976 258.210281 
L 96.8832 256.937164 
L 96.8832 255.872716 
L 98.6688 255.133209 
L 98.6688 254.068761 
L 100.4544 253.86315 
L 100.4544 252.798702 
L 102.24 252.595021 
L 102.24 251.530573 
L 104.0256 251.329055 
L 104.0256 235.362335 
L 104.0256 238.555679 
L 102.24 241.418317 
L 98.6688 244.488729 
L 91.5264 251.381766 
L 86.1696 254.525833 
L 82.5984 256.430748 
L 79.0272 256.719125 
L 75.456 256.444043 
L 73.6704 253.894685 
L 73.6704 252.830237 
L 71.8848 252.394705 
L 71.8848 258.249169 
L 70.0992 260.259488 
L 71.8848 258.249169 
L 70.0992 259.727264 
L 70.0992 266.646176 
L 70.0992 264.713414 
L 71.8848 265.168081 
L 70.0992 264.713414 
L 71.8848 264.635857 
L 70.0992 266.646176 
L 70.0992 264.713414 
L 71.8848 264.635857 
L 70.0992 264.713414 
L 70.0992 266.646176 
L 71.8848 264.635857 
L 70.0992 266.646176 
L 70.0992 266.113952 
L 70.0992 266.113952 
L 71.8848 264.103633 
L 70.0992 266.646176 
L 71.8848 264.103633 
L 70.0992 266.113952 
L 70.0992 266.113952 
L 70.0992 266.646176 
L 70.0992 266.646176 
L 71.8848 264.635857 
L 70.0992 266.646176 
L 70.0992 266.113952 
L 71.8848 264.103633 
L 71.8848 264.103633 
L 70.0992 265.581728 
L 71.8848 263.571409 
L 70.0992 265.581728 
L 70.0992 265.049504 
L 70.0992 265.049504 
L 71.8848 263.039185 
L 70.0992 265.049504 
L 70.0992 262.920608 
L 71.8848 259.845841 
L 71.8848 258.249169 
L 75.456 256.976267 
L 79.0272 256.719125 
L 79.0272 256.186901 
L 86.1696 251.332489 
L 87.9552 250.641256 
L 91.5264 249.785094 
L 95.0976 247.565801 
L 98.6688 247.149849 
L 102.24 245.676109 
L 102.24 244.611661 
L 100.4544 243.750894 
L 98.6688 243.424281 
L 96.8832 242.567116 
L 96.8832 242.906406 
L 95.0976 240.941668 
L 96.8832 239.180838 
L 96.8832 237.584166 
L 98.6688 236.355945 
L 100.4544 233.106414 
L 102.24 232.370509 
L 104.0256 231.104543 
L 104.0256 230.040095 
L 105.8112 229.308725 
L 107.5968 229.112143 
L 107.5968 227.515471 
L 109.3824 227.321627 
L 109.3824 223.063835 
L 109.3824 223.063835 
L 107.5968 222.725455 
L 107.5968 217.403215 
L 107.5968 217.403215 
L 109.3824 217.209371 
L 109.3824 217.209371 
L 109.3824 211.887131 
L 107.5968 211.548751 
L 107.5968 211.548751 
L 107.5968 210.484303 
L 107.5968 210.484303 
L 109.3824 210.822683 
L 109.3824 210.822683 
L 109.3824 214.016027 
L 107.5968 215.806543 
L 107.5968 217.935439 
L 105.8112 219.728693 
L 104.0256 220.992287 
L 102.24 223.257547 
L 102.24 224.321995 
L 100.4544 224.48398 
L 100.4544 224.48398 
L 100.4544 226.612876 
L 100.4544 226.612876 
L 102.24 225.451597 
L 102.24 211.548619 
L 100.4544 199.469452 
L 100.4544 190.953868 
L 98.6688 184.197993 
L 98.6688 157.054569 
L 96.8832 149.234982 
L 96.8832 133.800486 
L 96.8832 179.57175 
L 95.0976 181.33258 
L 95.0976 189.31594 
L 96.8832 190.748454 
L 96.8832 192.345126 
L 98.6688 193.778025 
L 98.6688 194.310249 
L 100.4544 195.21166 
L 100.4544 195.743884 
L 102.24 196.646347 
L 102.24 199.839691 
L 102.24 199.839691 
L 100.4544 200.001676 
L 100.4544 200.5339 
L 100.4544 200.5339 
L 98.6688 200.696937 
L 98.6688 200.696937 
L 98.6688 201.229161 
L 96.8832 200.86071 
L 96.8832 200.86071 
L 96.8832 204.586278 
L 96.8832 202.457382 
L 98.6688 202.825833 
L 98.6688 202.825833 
L 98.6688 203.358057 
L 98.6688 202.293609 
L 100.4544 201.066124 
L 100.4544 199.469452 
L 104.0256 197.017923 
L 105.8112 196.326645 
L 105.8112 195.262197 
L 109.3824 193.885337 
L 109.3824 193.353113 
L 109.3824 193.353113 
L 111.168 190.939446 
L 111.168 190.939446 
L 111.168 190.407222 
L 111.168 190.407222 
L 109.3824 192.288665 
L 102.24 190.791883 
L 104.0256 191.163459 
L 104.0256 190.631235 
L 105.8112 191.004405 
L 107.5968 191.911627 
L 109.3824 192.288665 
L 112.9536 190.75154 
L 120.096 192.16177 
L 120.096 192.16177 
L 120.096 191.629546 
L 120.096 192.16177 
L 121.8816 192.52312 
L 120.096 192.16177 
L 120.096 193.758442 
L 120.096 190.032874 
L 120.096 193.758442 
L 109.3824 194.855963 
L 109.3824 195.920411 
L 107.5968 198.298315 
L 109.3824 196.984859 
L 109.3824 214.016027 
L 109.3824 211.887131 
L 111.168 210.631734 
L 112.9536 208.847156 
L 116.5248 207.948774 
L 118.3104 206.706311 
L 120.096 206.531818 
L 120.096 205.999594 
L 123.6672 207.790453 
L 123.6672 209.387125 
L 125.4528 210.288207 
L 125.4528 210.288207 
L 125.4528 217.739343 
L 125.4528 216.674895 
L 127.2384 215.450959 
L 127.2384 214.386511 
L 130.8096 213.015011 
L 130.8096 212.482787 
L 132.5952 212.335361 
L 134.3808 211.110871 
L 134.3808 211.110871 
L 136.1664 211.485374 
L 136.1664 211.485374 
L 137.952 212.396577 
L 137.952 212.396577 
L 137.952 210.799905 
L 139.7376 209.586732 
L 139.7376 208.522284 
L 141.5232 207.313673 
L 143.3088 206.64189 
L 145.0944 206.506972 
L 145.0944 206.506972 
L 150.4512 207.727096 
L 150.4512 216.24268 
L 150.4512 214.113784 
L 152.2368 212.933332 
L 154.0224 212.28991 
L 154.0224 210.693238 
L 155.808 210.586876 
L 159.3792 211.453212 
L 159.3792 211.985436 
L 161.1648 212.958186 
L 161.1648 213.49041 
L 162.9504 212.646127 
L 162.9504 212.646127 
L 162.9504 211.049455 
L 162.9504 211.274754 
L 164.736 209.360098 
L 164.736 208.531833 
L 166.5216 205.546918 
L 170.0928 202.193639 
L 171.8784 201.056904 
L 173.664 201.521984 
L 175.4496 202.524446 
L 175.4496 203.05667 
L 177.2352 204.064307 
L 177.2352 205.128755 
L 177.2352 205.128755 
L 179.0208 205.609357 
L 179.0208 205.609357 
L 179.0208 203.480461 
L 179.0208 203.480461 
L 180.8064 203.434042 
L 180.8064 203.434042 
L 180.8064 202.369594 
L 180.8064 202.369594 
L 179.0208 201.883789 
L 179.0208 201.883789 
L 179.0208 200.287117 
L 179.0208 200.287117 
L 180.8064 200.772922 
L 180.8064 200.772922 
L 180.8064 198.111802 
L 182.592 196.473928 
L 182.592 195.40948 
L 184.3776 193.776835 
L 186.1632 193.213882 
L 187.9488 193.720632 
L 187.9488 193.188408 
L 189.7344 193.700426 
L 191.52 194.749946 
L 191.52 194.749946 
L 191.52 193.685498 
L 191.52 193.685498 
L 193.3056 194.208084 
L 193.3056 194.208084 
L 193.3056 188.885844 
L 196.8768 186.753584 
L 196.8768 185.689136 
L 202.2336 187.320694 
L 202.2336 187.320694 
L 202.2336 180.401782 
L 204.0192 180.956322 
L 204.0192 179.891874 
L 204.0192 179.891874 
L 205.8048 180.451772 
L 205.8048 177.258428 
L 207.5904 175.694797 
L 207.5904 174.098125 
L 209.376 173.072093 
L 211.1616 172.58367 
L 214.7328 172.687452 
L 214.7328 172.687452 
L 216.5184 173.279673 
L 216.5184 173.279673 
L 216.5184 172.642588 
L 216.5184 176.90038 
L 216.5184 176.90038 
L 218.304 178.023689 
L 218.304 178.023689 
L 216.5184 177.432604 
L 216.5184 177.432604 
L 216.5184 177.964828 
L 216.5184 177.432604 
L 218.304 176.427017 
L 218.304 174.830345 
L 220.0896 174.362438 
L 221.8752 173.367772 
L 223.6608 172.910798 
L 223.6608 172.378574 
L 225.4464 172.4593 
L 227.232 173.077731 
L 227.232 173.077731 
L 229.0176 174.233873 
L 229.0176 174.233873 
L 229.0176 179.023889 
L 229.0176 179.023889 
L 230.8032 178.588852 
L 230.8032 178.056628 
L 232.5888 178.159312 
L 232.5888 177.627088 
L 234.3744 177.735274 
L 236.16 178.381193 
L 236.16 178.913417 
L 237.9456 180.097072 
L 237.9456 181.16152 
L 239.7312 181.818469 
L 239.7312 197.87674 
L 239.7312 181.286245 
L 239.7312 195.747844 
L 241.5168 196.405557 
L 241.5168 198.534453 
L 241.5168 198.534453 
L 243.3024 199.729941 
L 243.3024 199.729941 
L 243.3024 196.004373 
L 245.088 195.076518 
L 248.6592 194.301936 
L 250.4448 194.455215 
L 252.2304 195.678512 
L 252.2304 196.210736 
L 254.016 197.439607 
L 254.016 200.100727 
L 255.8016 201.335174 
L 255.8016 201.335174 
L 255.8016 201.867398 
L 255.8016 195.48071 
L 257.5872 194.059618 
L 261.1584 192.298636 
L 262.944 192.490977 
L 262.944 192.490977 
L 266.5152 193.956892 
L 266.5152 193.649199 
L 266.5152 193.649199 
L 268.3008 194.386973 
L 268.3008 192.258077 
L 268.3008 199.176989 
L 268.3008 193.322525 
L 271.872 191.621586 
L 271.872 190.024914 
L 273.6576 189.715103 
L 277.2288 191.241257 
L 277.2288 191.773481 
L 279.0144 193.077227 
L 279.0144 193.609451 
L 279.0144 192.545003 
L 280.8 193.32216 
L 280.8 189.064368 
L 282.5856 188.250489 
L 282.5856 186.653817 
L 284.3712 185.845576 
L 287.9424 186.374916 
L 287.9424 186.374916 
L 291.5136 187.991287 
L 291.5136 187.991287 
L 291.5136 186.926839 
L 291.5136 193.313527 
L 291.5136 186.926839 
L 293.2992 187.743497 
L 291.5136 186.926839 
L 291.5136 186.394615 
L 291.5136 186.394615 
" clip-path="url(#pd3954a0cf7)" style="fill: none; stroke: #1f77b4; stroke-width: 1.5; stroke-linecap: square"/>
   </g>
   <g id="patch_3">
    <path d="M 57.6 307.584 
L 57.6 41.472 
" style="fill: none; stroke: #000000; stroke-width: 0.8; stroke-linejoin: miter; stroke-linecap: square"/>
   </g>
   <g id="patch_4">
    <path d="M 414.72 307.584 
L 414.72 41.472 
" style="fill: none; stroke: #000000; stroke-width: 0.8; stroke-linejoin: miter; stroke-linecap: square"/>
   </g>
   <g id="patch_5">
    <path d="M 57.6 307.584 
L 414.72 307.584 
" style="fill: none; stroke: #000000; stroke-width: 0.8; stroke-linejoin: miter; stroke-linecap: square"/>
   </g>
   <g id="patch_6">
    <path d="M 57.6 41.472 
L 414.72 41.472 
" style="fill: none; stroke: #000000; stroke-width: 0.8; stroke-linejoin: miter; stroke-linecap: square"/>
   </g>
  </g>
 </g>
 <defs>
  <clipPath id="pd3954a0cf7">
   <rect x="57.6" y="41.472" width="357.12" height="266.112"/>
  </clipPath>
 </defs>
</svg>
